<?xml version="1.0" encoding="UTF-8" standalone="no"?>
<svg
   xmlns:dc="http://purl.org/dc/elements/1.1/"
   xmlns:cc="http://creativecommons.org/ns#"
   xmlns:rdf="http://www.w3.org/1999/02/22-rdf-syntax-ns#"
   xmlns:svg="http://www.w3.org/2000/svg"
   xmlns="http://www.w3.org/2000/svg"
   xmlns:sodipodi="http://sodipodi.sourceforge.net/DTD/sodipodi-0.dtd"
   xmlns:inkscape="http://www.inkscape.org/namespaces/inkscape"
   sodipodi:docname="AI.svg"
   inkscape:version="1.0.2 (e86c870879, 2021-01-15, custom)"
   id="svg8"
   version="1.1"
   viewBox="0 0 100 111"
   height="111mm"
   width="100mm"
   inkscape:export-filename="C:\Users\Andrei\Downloads\weirdperson.png"
   inkscape:export-xdpi="96"
   inkscape:export-ydpi="96">
  <defs
     id="defs2" />
  <sodipodi:namedview
     inkscape:window-maximized="1"
     inkscape:window-y="-8"
     inkscape:window-x="-8"
     inkscape:window-height="1017"
     inkscape:window-width="1920"
     showgrid="false"
     inkscape:document-rotation="0"
     inkscape:current-layer="layer1"
     inkscape:document-units="mm"
     inkscape:cy="243.46233"
     inkscape:cx="187.04279"
     inkscape:zoom="2.02"
     inkscape:pageshadow="2"
     inkscape:pageopacity="0.0"
     borderopacity="1.0"
     bordercolor="#666666"
     pagecolor="#ffffff"
     id="base" />
  <metadata
     id="metadata5">
    <rdf:RDF>
      <cc:Work
         rdf:about="">
        <dc:format>image/svg+xml</dc:format>
        <dc:type
           rdf:resource="http://purl.org/dc/dcmitype/StillImage" />
        <dc:title />
      </cc:Work>
    </rdf:RDF>
  </metadata>
  <g
     id="layer1"
     inkscape:groupmode="layer"
     inkscape:label="Layer 1">
    <g
       id="g867"
       style="fill:#424242;fill-opacity:1"
       transform="translate(-53.039871,-96.434566)">
      <ellipse
         style="fill:#424242;fill-opacity:1;stroke:none;stroke-width:0.637017"
         id="path22"
         cx="55.82272"
         cy="99.374931"
         rx="1.9767189"
         ry="1.8739243" />
      <ellipse
         style="fill:#424242;fill-opacity:1;stroke:none;stroke-width:0.637017"
         id="ellipse852"
         cx="55.93824"
         cy="204.41086"
         rx="2.0038671"
         ry="1.9489185" />
      <rect
         style="fill:#424242;fill-opacity:1;stroke:none;stroke-width:1.22181"
         id="rect854"
         width="2.2045934"
         height="105.58218"
         x="53.846001"
         y="98.859528" />
    </g>
    <g
       id="g875"
       style="fill:#424242;fill-opacity:1"
       transform="translate(-53.039871,-96.434566)">
      <ellipse
         style="fill:#424242;fill-opacity:1;stroke:none;stroke-width:0.637017"
         id="ellipse849"
         cx="150.12965"
         cy="204.41086"
         rx="2.0038671"
         ry="1.9489185" />
      <rect
         style="fill:#424242;fill-opacity:1;stroke:none;stroke-width:1.22181"
         id="rect856"
         width="2.2045934"
         height="105.58218"
         x="149.95399"
         y="98.859528"
         ry="0.2619637" />
    </g>
    <g
       id="g871"
       style="fill:#424242;fill-opacity:1"
       transform="translate(-53.039871,-96.434566)">
      <path
         style="fill:#424242;fill-opacity:1;stroke:none;stroke-width:0.637017"
         id="ellipse847"
         sodipodi:type="arc"
         sodipodi:cx="150.22987"
         sodipodi:cy="99.636894"
         sodipodi:rx="2.0038671"
         sodipodi:ry="2.1358871"
         sodipodi:start="0"
         sodipodi:end="6.0676951"
         sodipodi:open="true"
         sodipodi:arc-type="arc"
         d="m 152.23374,99.636894 a 2.0038671,2.1358871 0 0 1 -1.89597,2.132786 2.0038671,2.1358871 0 0 1 -2.10014,-1.903099 2.0038671,2.1358871 0 0 1 1.66979,-2.33774 2.0038671,2.1358871 0 0 1 2.27997,1.651344" />
      <rect
         style="fill:#424242;fill-opacity:1;stroke:none;stroke-width:1.15146"
         id="rect858"
         width="2.2045934"
         height="93.772415"
         x="-99.705597"
         y="56.050594"
         transform="rotate(-90)" />
    </g>
    <rect
       style="fill:#424242;fill-opacity:1;stroke:none;stroke-width:1.15146"
       id="rect860"
       width="2.2045934"
       height="93.772415"
       x="-109.93203"
       y="3.0107243"
       transform="rotate(-90)" />
    <path
       id="rect13"
       style="fill:#808080;fill-opacity:1;stroke-width:0.544988;stroke-linecap:round;paint-order:markers fill stroke"
       d="M 1.819424,1.921994 H 98.109829 V 108.82345 H 1.819424 Z" />
    <path
       id="rect25"
       style="fill:#e2e2e2;fill-opacity:1;stroke:none;stroke-width:5.80321"
       d="m 46.032885,68.291354 h 7.298844 c 0,0 5.54822,20.47885 0.91237,20.29954 l -8.895469,-0.34405 c -4.704476,-0.18197 0.684255,-19.95549 0.684255,-19.95549 z"
       sodipodi:nodetypes="ccssc" />
    <g
       id="g967"
       transform="matrix(1.0480048,0,0,1,-57.839449,-96.434566)"
       style="fill:#e2e2e2;fill-opacity:1">
      <path
         id="path23"
         style="fill:#e2e2e2;fill-opacity:1;stroke:none;stroke-width:4.71619"
         d="m 111.82752,193.40814 c 0,8.40851 -5.67991,11.39545 -13.301106,11.39545 -7.621194,0 -14.297676,-2.98694 -14.297674,-11.39545 3e-6,-8.4085 6.178199,-15.22494 13.79939,-15.22494 7.62119,0 13.79939,6.81644 13.79939,15.22494 z"
         sodipodi:nodetypes="sssss" />
      <path
         id="ellipse851"
         style="fill:#e2e2e2;fill-opacity:1;stroke:none;stroke-width:4.72501"
         d="m 122.02766,193.23708 c 0,8.43999 -5.84601,11.10433 -13.4672,11.10433 -7.62119,0 -14.131574,-2.66434 -14.131578,-11.10433 -10e-7,-8.44 6.178198,-15.28197 13.799388,-15.28197 7.62119,0 13.79939,6.84197 13.79939,15.28197 z"
         sodipodi:nodetypes="sssss" />
      <path
         id="rect864"
         style="fill:#e2e2e2;fill-opacity:1;stroke:none;stroke-width:3.34385"
         d="m 84.220573,192.7809 h 37.807087 v 12.5449 H 84.220573 Z" />
    </g>
    <path
       id="path949"
       style="fill:#d7d7d7;fill-opacity:1;stroke:none;stroke-width:4.81362"
       d="m 54.945009,73.641864 c 0.081,1.17545 0.30098,3.07239 -5.16934,2.93922 -5.148323,-0.12534 -5.399237,-1.01565 -5.287912,-2.55211 0.149038,-2.05696 2.395439,-4.98218 5.184762,-4.98218 2.78932,0 5.14082,2.68384 5.27249,4.59507 z"
       sodipodi:nodetypes="sssss" />
    <path
       sodipodi:nodetypes="sssss"
       d="m 65.847149,55.794834 c 0,9.45193 -7.14157,20.10507 -15.95113,20.10507 -8.809563,0 -15.951124,-10.65314 -15.951124,-20.10507 0,-9.45193 7.141561,-17.11422 15.951124,-17.11422 8.80956,0 15.95113,7.66229 15.95113,17.11422 z"
       style="fill:#e2e2e2;fill-opacity:1;stroke-width:0.586675;stroke-linecap:round;stroke-miterlimit:4;stroke-dasharray:none;paint-order:markers fill stroke"
       id="path10" />
    <rect
       style="fill:#666666;fill-opacity:1;stroke:none;stroke-width:0.49209"
       id="rect884"
       width="43.110428"
       height="1.0661273"
       x="27.815308"
       y="108.86744" />
    <g
       id="g948"
       transform="translate(-53.039871,-96.434566)">
      <path
         style="fill:none;stroke:#005b80;stroke-width:0.264583px;stroke-linecap:butt;stroke-linejoin:miter;stroke-opacity:1"
         d="m 91.149747,140.68171 2.231427,2.23143 -2.125167,1.38135 2.018908,2.12517"
         id="path55" />
      <ellipse
         style="fill:#003e56;fill-opacity:1;stroke:none;stroke-width:2.35571;stroke-opacity:1"
         id="path861"
         cx="91.426285"
         cy="144.35516"
         rx="0.418836"
         ry="0.39042348" />
      <ellipse
         style="fill:#003e56;fill-opacity:1;stroke:none;stroke-width:2.35571;stroke-opacity:1"
         id="ellipse867"
         cx="93.314285"
         cy="146.4718"
         rx="0.418836"
         ry="0.39042348" />
      <ellipse
         style="fill:#003e56;fill-opacity:1;stroke:none;stroke-width:2.35571;stroke-opacity:1"
         id="ellipse890"
         cx="93.321838"
         cy="142.92961"
         rx="0.418836"
         ry="0.39042348" />
    </g>
    <g
       id="g938"
       transform="translate(-53.039871,-96.434566)">
      <path
         style="fill:none;stroke:#005b80;stroke-width:0.264583px;stroke-linecap:butt;stroke-linejoin:miter;stroke-opacity:1"
         d="m 115.51766,164.05125 -2.2149,-1.71884 1.42815,-1.42814 -1.50331,-1.20266 v 0 0"
         id="path898"
         sodipodi:nodetypes="cccccc" />
      <ellipse
         style="fill:#003e56;fill-opacity:1;stroke:none;stroke-width:2.35571;stroke-opacity:1"
         id="ellipse908"
         cx="113.09315"
         cy="-159.72821"
         rx="0.418836"
         ry="0.39042348"
         transform="scale(1,-1)" />
      <ellipse
         style="fill:#003e56;fill-opacity:1;stroke:none;stroke-width:2.35571;stroke-opacity:1"
         id="ellipse910"
         cx="114.60205"
         cy="-160.81601"
         rx="0.418836"
         ry="0.39042348"
         transform="scale(1,-1)" />
      <ellipse
         style="fill:#003e56;fill-opacity:1;stroke:none;stroke-width:2.35571;stroke-opacity:1"
         id="ellipse912"
         cx="113.37388"
         cy="-162.25473"
         rx="0.418836"
         ry="0.39042348"
         transform="scale(1,-1)" />
    </g>
    <path
       style="fill:none;stroke:#005b80;stroke-width:0.264583px;stroke-linecap:butt;stroke-linejoin:miter;stroke-opacity:1"
       d="m 40.469142,87.221744 1.40541,1.22209 -1.2832,1.34431 -1.40541,-1.2832 z"
       id="path922"
       sodipodi:nodetypes="ccccc" />
    <path
       style="fill:none;stroke:#005b80;stroke-width:0.264583px;stroke-linecap:butt;stroke-linejoin:miter;stroke-opacity:1"
       d="m 39.410808,87.221744 1.40541,1.22209 -1.2832,1.34431 -1.40541,-1.2832 z"
       id="path924"
       sodipodi:nodetypes="ccccc" />
    <path
       style="fill:none;stroke:#005b80;stroke-width:0.264583px;stroke-linecap:butt;stroke-linejoin:miter;stroke-opacity:1"
       d="m 40.469142,87.221744 1.40541,1.22209 -1.2832,1.34431 -1.40541,-1.2832 z"
       id="path926"
       sodipodi:nodetypes="ccccc" />
    <g
       id="g958"
       transform="translate(-53.039871,-96.434566)">
      <path
         style="fill:none;stroke:#6b6b6b;stroke-width:0.264583px;stroke-linecap:butt;stroke-linejoin:miter;stroke-opacity:1"
         d="m 117.4701,181.16609 -3.42979,3.67477 3.67477,2.93981 -2.81732,3.06231"
         id="path940" />
      <ellipse
         style="fill:#4d4d4d;fill-opacity:1;stroke:none;stroke-width:2.35571;stroke-opacity:1"
         id="ellipse942"
         cx="114.2122"
         cy="184.7524"
         rx="0.418836"
         ry="0.39042348" />
      <ellipse
         style="fill:#4d4d4d;fill-opacity:1;stroke:none;stroke-width:2.35571;stroke-opacity:1"
         id="ellipse950"
         cx="114.99992"
         cy="190.72984"
         rx="0.418836"
         ry="0.39042348" />
      <ellipse
         style="fill:#4d4d4d;fill-opacity:1;stroke:none;stroke-width:2.35571;stroke-opacity:1"
         id="ellipse952"
         cx="117.52621"
         cy="187.78835"
         rx="0.418836"
         ry="0.39042348" />
    </g>
  </g>
</svg>
