<?xml version="1.0" encoding="UTF-8" standalone="no"?>
<svg
   xmlns:dc="http://purl.org/dc/elements/1.1/"
   xmlns:cc="http://creativecommons.org/ns#"
   xmlns:rdf="http://www.w3.org/1999/02/22-rdf-syntax-ns#"
   xmlns:svg="http://www.w3.org/2000/svg"
   xmlns="http://www.w3.org/2000/svg"
   xmlns:sodipodi="http://sodipodi.sourceforge.net/DTD/sodipodi-0.dtd"
   xmlns:inkscape="http://www.inkscape.org/namespaces/inkscape"
   sodipodi:docname="ZehermanAlien.svg"
   inkscape:version="1.0.2 (e86c870879, 2021-01-15, custom)"
   id="svg8"
   version="1.1"
   viewBox="0 0 100 111"
   height="111mm"
   width="100mm"
   inkscape:export-filename="C:\Users\Andrei\Downloads\weirdperson.png"
   inkscape:export-xdpi="96"
   inkscape:export-ydpi="96">
  <defs
     id="defs2">
    <inkscape:perspective
       sodipodi:type="inkscape:persp3d"
       inkscape:vp_x="29.385964 : 27.853879 : 1"
       inkscape:vp_y="0 : 272.07489 : 0"
       inkscape:vp_z="56.593452 : 27.853879 : 1"
       inkscape:persp3d-origin="42.989708 : 22.820493 : 1"
       id="perspective913" />
    <inkscape:path-effect
       effect="spiro"
       id="path-effect862"
       is_visible="true"
       lpeversion="1" />
  </defs>
  <sodipodi:namedview
     inkscape:window-maximized="1"
     inkscape:window-y="-8"
     inkscape:window-x="-8"
     inkscape:window-height="1017"
     inkscape:window-width="1920"
     showgrid="false"
     inkscape:document-rotation="0"
     inkscape:current-layer="layer1"
     inkscape:document-units="mm"
     inkscape:cy="277.44827"
     inkscape:cx="199.93178"
     inkscape:zoom="2.16"
     inkscape:pageshadow="2"
     inkscape:pageopacity="0.0"
     borderopacity="1.0"
     bordercolor="#666666"
     pagecolor="#ffffff"
     id="base"
     inkscape:snap-midpoints="true" />
  <metadata
     id="metadata5">
    <rdf:RDF>
      <cc:Work
         rdf:about="">
        <dc:format>image/svg+xml</dc:format>
        <dc:type
           rdf:resource="http://purl.org/dc/dcmitype/StillImage" />
        <dc:title />
      </cc:Work>
    </rdf:RDF>
  </metadata>
  <g
     id="layer1"
     inkscape:groupmode="layer"
     inkscape:label="Layer 1">
    <g
       id="g867"
       style="fill:#424242;fill-opacity:1"
       transform="translate(-53.039871,-96.434566)">
      <ellipse
         style="fill:#424242;fill-opacity:1;stroke:none;stroke-width:0.637017"
         id="path22"
         cx="55.82272"
         cy="99.374931"
         rx="1.9767189"
         ry="1.8739243" />
      <ellipse
         style="fill:#424242;fill-opacity:1;stroke:none;stroke-width:0.637017"
         id="ellipse852"
         cx="55.93824"
         cy="204.41086"
         rx="2.0038671"
         ry="1.9489185" />
      <rect
         style="fill:#424242;fill-opacity:1;stroke:none;stroke-width:1.22181"
         id="rect854"
         width="2.2045934"
         height="105.58218"
         x="53.846001"
         y="98.859528" />
    </g>
    <g
       id="g875"
       style="fill:#424242;fill-opacity:1"
       transform="translate(-53.039871,-96.434566)">
      <ellipse
         style="fill:#424242;fill-opacity:1;stroke:none;stroke-width:0.637017"
         id="ellipse849"
         cx="150.12965"
         cy="204.41086"
         rx="2.0038671"
         ry="1.9489185" />
      <rect
         style="fill:#424242;fill-opacity:1;stroke:none;stroke-width:1.22181"
         id="rect856"
         width="2.2045934"
         height="105.58218"
         x="149.95399"
         y="98.859528"
         ry="0.2619637" />
    </g>
    <g
       id="g871"
       style="fill:#424242;fill-opacity:1"
       transform="translate(-53.039871,-96.434566)">
      <path
         style="fill:#424242;fill-opacity:1;stroke:none;stroke-width:0.637017"
         id="ellipse847"
         sodipodi:type="arc"
         sodipodi:cx="150.22987"
         sodipodi:cy="99.636894"
         sodipodi:rx="2.0038671"
         sodipodi:ry="2.1358871"
         sodipodi:start="0"
         sodipodi:end="6.0676951"
         sodipodi:open="true"
         sodipodi:arc-type="arc"
         d="m 152.23374,99.636894 a 2.0038671,2.1358871 0 0 1 -1.89597,2.132786 2.0038671,2.1358871 0 0 1 -2.10014,-1.903099 2.0038671,2.1358871 0 0 1 1.66979,-2.33774 2.0038671,2.1358871 0 0 1 2.27997,1.651344" />
      <rect
         style="fill:#424242;fill-opacity:1;stroke:none;stroke-width:1.15146"
         id="rect858"
         width="2.2045934"
         height="93.772415"
         x="-99.705597"
         y="56.050594"
         transform="rotate(-90)" />
    </g>
    <rect
       style="fill:#424242;fill-opacity:1;stroke:none;stroke-width:1.15146"
       id="rect860"
       width="2.2045934"
       height="93.772415"
       x="-109.93203"
       y="3.0107243"
       transform="rotate(-90)" />
    <path
       id="rect13"
       style="fill:#808080;fill-opacity:1;stroke-width:0.544988;stroke-linecap:round;paint-order:markers fill stroke"
       d="M 1.819424,1.921994 H 98.109829 V 108.82345 H 1.819424 Z" />
    <path
       id="rect25"
       style="fill:#008000;fill-opacity:1;stroke:none;stroke-width:5.80321"
       d="m 46.032885,68.291354 h 7.298844 c 0,0 5.54822,20.47885 0.91237,20.29954 l -8.895469,-0.34405 c -4.704476,-0.18197 0.684255,-19.95549 0.684255,-19.95549 z"
       sodipodi:nodetypes="ccssc" />
    <path
       id="path949"
       style="fill:#007500;fill-opacity:1;stroke:none;stroke-width:5.06954"
       d="m 55.462865,73.234265 c 0.257841,1.292029 0.974453,5.851956 -5.424373,5.504735 -6.018316,0.256072 -6.601216,-3.457979 -6.247577,-5.22913 0.424141,-2.124251 2.856431,-4.96287 5.802015,-4.96287 2.945581,0 5.476139,2.713972 5.869935,4.687265 z"
       sodipodi:nodetypes="scsss" />
    <path
       sodipodi:nodetypes="sssss"
       d="m 65.847149,55.794834 c 0,9.45193 -7.035312,22.549013 -15.844872,22.549013 -8.809563,0 -16.057382,-13.097083 -16.057382,-22.549013 0,-9.45193 7.141561,-17.11422 15.951124,-17.11422 8.80956,0 15.95113,7.66229 15.95113,17.11422 z"
       style="fill:#008000;fill-opacity:1;stroke-width:0.586675;stroke-linecap:round;stroke-miterlimit:4;stroke-dasharray:none;paint-order:markers fill stroke"
       id="path10" />
    <rect
       style="fill:#424242;fill-opacity:1;stroke:none;stroke-width:0.49209"
       id="rect884"
       width="43.110428"
       height="1.0661273"
       x="27.815308"
       y="108.86744" />
    <g
       id="g903"
       transform="translate(-53.039871,-96.434566)"
       style="fill:#1a1a1a">
      <path
         id="path23"
         style="fill:#1a1a1a;fill-opacity:1;stroke:none;stroke-width:4.82806"
         d="m 112.3962,193.40814 c 0,8.40851 -5.95257,11.39545 -13.939623,11.39545 -7.987048,0 -14.984033,-2.98694 -14.984031,-11.39545 3e-6,-8.4085 6.474782,-15.22494 14.461827,-15.22494 7.987047,0 14.461827,6.81644 14.461827,15.22494 z"
         sodipodi:nodetypes="sssss" />
      <path
         id="ellipse851"
         style="fill:#1a1a1a;fill-opacity:1;stroke:none;stroke-width:4.83709"
         d="m 123.086,193.23708 c 0,8.43999 -6.12665,11.10433 -14.11369,11.10433 -7.98705,0 -14.809962,-2.66434 -14.809967,-11.10433 -1e-6,-8.44 6.474777,-15.28197 14.461827,-15.28197 7.98704,0 14.46183,6.84197 14.46183,15.28197 z"
         sodipodi:nodetypes="sssss" />
      <path
         id="rect864"
         style="fill:#1a1a1a;fill-opacity:1;stroke:none;stroke-width:3.42317"
         d="M 83.463987,192.7809 H 123.086 v 12.5449 H 83.463987 Z" />
    </g>
    <path
       id="rect870"
       style="fill:#008000;fill-opacity:1;stroke:none;stroke-width:0.377295;stroke-miterlimit:4;stroke-dasharray:none;stroke-opacity:1"
       d="m 43.517463,80.896267 h 12.357486 v 1.09849 c -4.1697,4.846868 -7.969528,4.434307 -12.357486,0 z"
       sodipodi:nodetypes="ccccc" />
    <path
       id="path862"
       style="fill:#000000;fill-opacity:1;stroke-width:1.23771;stroke-linejoin:round"
       d="m 43.859705,57.589506 c -0.08961,0.462806 -0.885222,0.569908 -1.777047,0.239221 -0.891827,-0.330689 -2.378028,-1.986079 -2.288414,-2.448884 0.08961,-0.462805 1.7211,0.442228 2.612925,0.772917 0.891826,0.330687 1.542147,0.973943 1.452536,1.436746 z"
       sodipodi:nodetypes="sssss" />
    <path
       id="path867"
       style="fill:#000000;fill-opacity:1;stroke-width:1.23771;stroke-linejoin:round"
       d="m 55.673634,57.589506 c 0.08961,0.462806 0.885222,0.569908 1.777047,0.239221 0.891827,-0.330689 2.378028,-1.986079 2.288414,-2.448884 -0.08961,-0.462805 -1.7211,0.442228 -2.612925,0.772917 -0.891826,0.330687 -1.542147,0.973943 -1.452536,1.436746 z"
       sodipodi:nodetypes="sssss" />
    <path
       style="fill:none;stroke:#007100;stroke-width:0.264583px;stroke-linecap:butt;stroke-linejoin:miter;stroke-opacity:1"
       d="m 52.434143,43.909573 4.101444,2.573456"
       id="path855" />
    <path
       style="fill:none;stroke:#007100;stroke-width:0.264583px;stroke-linecap:butt;stroke-linejoin:miter;stroke-opacity:1"
       d="m 53.610892,43.796708 3.453862,2.157154"
       id="path859"
       sodipodi:nodetypes="cc" />
  </g>
</svg>
