<?xml version="1.0" encoding="UTF-8" standalone="no"?>
<svg
   xmlns:dc="http://purl.org/dc/elements/1.1/"
   xmlns:cc="http://creativecommons.org/ns#"
   xmlns:rdf="http://www.w3.org/1999/02/22-rdf-syntax-ns#"
   xmlns:svg="http://www.w3.org/2000/svg"
   xmlns="http://www.w3.org/2000/svg"
   xmlns:sodipodi="http://sodipodi.sourceforge.net/DTD/sodipodi-0.dtd"
   xmlns:inkscape="http://www.inkscape.org/namespaces/inkscape"
   width="61mm"
   height="68mm"
   viewBox="0 0 61 68"
   version="1.1"
   id="svg8"
   inkscape:version="1.0.2 (e86c870879, 2021-01-15, custom)"
   sodipodi:docname="BackgroundElement.svg">
  <defs
     id="defs2">
    <inkscape:path-effect
       effect="spiro"
       id="path-effect857"
       is_visible="true"
       lpeversion="1" />
    <inkscape:path-effect
       effect="spiro"
       id="path-effect853"
       is_visible="true"
       lpeversion="1" />
    <inkscape:path-effect
       effect="spiro"
       id="path-effect849"
       is_visible="true"
       lpeversion="1" />
  </defs>
  <sodipodi:namedview
     id="base"
     pagecolor="#ffffff"
     bordercolor="#666666"
     borderopacity="1.0"
     inkscape:pageopacity="0.0"
     inkscape:pageshadow="2"
     inkscape:zoom="0.54"
     inkscape:cx="400"
     inkscape:cy="302.75474"
     inkscape:document-units="mm"
     inkscape:current-layer="g22"
     inkscape:document-rotation="0"
     showgrid="false"
     inkscape:window-width="1920"
     inkscape:window-height="1017"
     inkscape:window-x="-8"
     inkscape:window-y="-8"
     inkscape:window-maximized="1" />
  <metadata
     id="metadata5">
    <rdf:RDF>
      <cc:Work
         rdf:about="">
        <dc:format>image/svg+xml</dc:format>
        <dc:type
           rdf:resource="http://purl.org/dc/dcmitype/StillImage" />
        <dc:title></dc:title>
      </cc:Work>
    </rdf:RDF>
  </metadata>
  <g
     inkscape:label="Layer 1"
     inkscape:groupmode="layer"
     id="layer1">
    <g
       id="g22"
       transform="matrix(2.0233905,0,0,2.0233905,-103.04629,-152.71885)">
      <g
         id="g846"
         transform="matrix(0.27528097,0,0,0.27528097,37.347305,55.113985)">
        <path
           id="rect15"
           style="fill:#ffffff;fill-opacity:1;stroke:#f2f2f2;stroke-width:1.82573;stroke-linejoin:round;stroke-miterlimit:4;stroke-dasharray:none;stroke-opacity:1"
           d="M 52.44636,76.961627 H 156.65444 V 194.08724 H 52.44636 Z" />
        <g
           id="g847"
           transform="translate(0,-12.834084)"
           style="stroke:#f2f2f2;stroke-opacity:1">
          <ellipse
             style="fill:none;stroke:#f2f2f2;stroke-width:4.12007;stroke-miterlimit:4;stroke-dasharray:none;stroke-opacity:1"
             id="path839"
             cx="105"
             cy="152.55409"
             rx="18.065592"
             ry="17.522614" />
          <path
             style="fill:none;stroke:#f2f2f2;stroke-width:5.838;stroke-linecap:butt;stroke-linejoin:miter;stroke-miterlimit:4;stroke-dasharray:none;stroke-opacity:1"
             d="m 96.647749,112.72578 c -3.307803,1.63024 -6.113347,4.26285 -7.950455,7.46039 -1.859625,3.23673 -2.718593,7.03932 -2.430834,10.76113 0.287759,3.7218 1.721034,7.34716 4.056093,10.25958 2.335058,2.91241 5.562073,5.09962 9.132284,6.18968 3.570213,1.09007 7.468593,1.0784 11.032213,-0.033 3.56362,-1.11142 6.77749,-3.3179 9.09507,-6.24424 2.31759,-2.92634 3.72914,-6.56021 3.99462,-10.28367 0.26547,-3.72346 -0.61624,-7.52084 -2.4952,-10.74639 -1.87897,-3.22554 -4.74728,-5.86568 -8.11717,-7.47144"
             id="path847"
             inkscape:path-effect="#path-effect849"
             inkscape:original-d="m 96.647749,112.72578 c -2.65001,2.48688 -5.300155,4.97368 -7.950455,7.46039 -2.6503,2.48671 16.178196,-5.04549 24.267076,-7.56836" />
          <path
             style="fill:none;stroke:#f2f2f2;stroke-width:5.838;stroke-linecap:butt;stroke-linejoin:miter;stroke-miterlimit:4;stroke-dasharray:none;stroke-opacity:1"
             d="m 77.852779,183.10732 c 3.491724,1.18623 7.337082,1.30851 10.89712,0.34654 3.603675,-0.97376 6.8999,-3.05521 9.32814,-5.8904 2.428251,-2.83519 3.978291,-6.41219 4.386541,-10.12272 0.40826,-3.71053 -0.327,-7.53897 -2.08072,-10.83428 -1.753731,-3.29532 -4.518558,-6.04365 -7.824311,-7.77762 -3.305754,-1.73398 -7.138525,-2.44631 -10.846542,-2.01585 -3.708017,0.43045 -7.275674,2.00187 -10.096283,4.44704 -2.820609,2.44517 -4.882299,5.75379 -5.834474,9.36323 -0.952175,3.60944 -0.790829,7.5045 0.456601,11.02282"
             id="path851" />
          <path
             style="fill:none;stroke:#f2f2f2;stroke-width:5.838;stroke-linecap:butt;stroke-linejoin:miter;stroke-miterlimit:4;stroke-dasharray:none;stroke-opacity:1"
             d="m 132.14721,182.80005 c -3.49174,1.18623 -7.33712,1.30852 -10.89718,0.34654 -3.60368,-0.97377 -6.89991,-3.05523 -9.32815,-5.89043 -2.42825,-2.8352 -3.97829,-6.41221 -4.38654,-10.12274 -0.40825,-3.71054 0.32701,-7.53898 2.08074,-10.8343 1.75374,-3.29533 4.51857,-6.04365 7.82433,-7.77763 3.30577,-1.73398 7.13855,-2.4463 10.84657,-2.01584 3.70802,0.43046 7.27569,2.00189 10.0963,4.44706 2.82061,2.44518 4.8823,5.75381 5.83447,9.36325 0.95218,3.60945 0.79083,7.50452 -0.45661,11.02285"
             id="path855"
             inkscape:path-effect="#path-effect857"
             inkscape:original-d="m 132.14721,182.80005 c -3.63235,0.11536 -7.26475,0.23086 -10.89718,0.34654 -3.63243,0.11568 15.00747,-7.87202 22.51111,-11.80778" />
        </g>
      </g>
    </g>
  </g>
</svg>
