<?xml version="1.0" encoding="UTF-8" standalone="no"?>
<svg
   xmlns:dc="http://purl.org/dc/elements/1.1/"
   xmlns:cc="http://creativecommons.org/ns#"
   xmlns:rdf="http://www.w3.org/1999/02/22-rdf-syntax-ns#"
   xmlns:svg="http://www.w3.org/2000/svg"
   xmlns="http://www.w3.org/2000/svg"
   xmlns:sodipodi="http://sodipodi.sourceforge.net/DTD/sodipodi-0.dtd"
   xmlns:inkscape="http://www.inkscape.org/namespaces/inkscape"
   sodipodi:docname="Mann - Copy.svg"
   inkscape:version="1.0.2 (e86c870879, 2021-01-15, custom)"
   id="svg8"
   version="1.1"
   viewBox="0 0 100 111"
   height="111mm"
   width="100mm"
   inkscape:export-filename="C:\Users\Andrei\Downloads\weirdperson.png"
   inkscape:export-xdpi="96"
   inkscape:export-ydpi="96">
  <defs
     id="defs2" />
  <sodipodi:namedview
     inkscape:window-maximized="1"
     inkscape:window-y="-8"
     inkscape:window-x="-8"
     inkscape:window-height="1017"
     inkscape:window-width="1920"
     showgrid="false"
     inkscape:document-rotation="0"
     inkscape:current-layer="layer1"
     inkscape:document-units="mm"
     inkscape:cy="302.19835"
     inkscape:cx="414.1503"
     inkscape:zoom="2.32"
     inkscape:pageshadow="2"
     inkscape:pageopacity="0.0"
     borderopacity="1.0"
     bordercolor="#666666"
     pagecolor="#ffffff"
     id="base" />
  <metadata
     id="metadata5">
    <rdf:RDF>
      <cc:Work
         rdf:about="">
        <dc:format>image/svg+xml</dc:format>
        <dc:type
           rdf:resource="http://purl.org/dc/dcmitype/StillImage" />
        <dc:title />
      </cc:Work>
    </rdf:RDF>
  </metadata>
  <g
     id="layer1"
     inkscape:groupmode="layer"
     inkscape:label="Layer 1">
    <g
       id="g867"
       style="fill:#424242;fill-opacity:1"
       transform="translate(-53.039871,-96.434566)">
      <ellipse
         style="fill:#424242;fill-opacity:1;stroke:none;stroke-width:0.637017"
         id="path22"
         cx="55.82272"
         cy="99.374931"
         rx="1.9767189"
         ry="1.8739243" />
      <ellipse
         style="fill:#424242;fill-opacity:1;stroke:none;stroke-width:0.637017"
         id="ellipse852"
         cx="55.93824"
         cy="204.41086"
         rx="2.0038671"
         ry="1.9489185" />
      <rect
         style="fill:#424242;fill-opacity:1;stroke:none;stroke-width:1.22181"
         id="rect854"
         width="2.2045934"
         height="105.58218"
         x="53.846001"
         y="98.859528" />
    </g>
    <g
       id="g875"
       style="fill:#424242;fill-opacity:1"
       transform="translate(-53.039871,-96.434566)">
      <ellipse
         style="fill:#424242;fill-opacity:1;stroke:none;stroke-width:0.637017"
         id="ellipse849"
         cx="150.12965"
         cy="204.41086"
         rx="2.0038671"
         ry="1.9489185" />
      <rect
         style="fill:#424242;fill-opacity:1;stroke:none;stroke-width:1.22181"
         id="rect856"
         width="2.2045934"
         height="105.58218"
         x="149.95399"
         y="98.859528"
         ry="0.2619637" />
    </g>
    <g
       id="g871"
       style="fill:#424242;fill-opacity:1"
       transform="translate(-53.039871,-96.434566)">
      <path
         style="fill:#424242;fill-opacity:1;stroke:none;stroke-width:0.637017"
         id="ellipse847"
         sodipodi:type="arc"
         sodipodi:cx="150.22987"
         sodipodi:cy="99.636894"
         sodipodi:rx="2.0038671"
         sodipodi:ry="2.1358871"
         sodipodi:start="0"
         sodipodi:end="6.0676951"
         sodipodi:open="true"
         sodipodi:arc-type="arc"
         d="m 152.23374,99.636894 a 2.0038671,2.1358871 0 0 1 -1.89597,2.132786 2.0038671,2.1358871 0 0 1 -2.10014,-1.903099 2.0038671,2.1358871 0 0 1 1.66979,-2.33774 2.0038671,2.1358871 0 0 1 2.27997,1.651344" />
      <rect
         style="fill:#424242;fill-opacity:1;stroke:none;stroke-width:1.15146"
         id="rect858"
         width="2.2045934"
         height="93.772415"
         x="-99.705597"
         y="56.050594"
         transform="rotate(-90)" />
    </g>
    <rect
       style="fill:#424242;fill-opacity:1;stroke:none;stroke-width:1.15146"
       id="rect860"
       width="2.2045934"
       height="93.772415"
       x="-109.93203"
       y="3.0107243"
       transform="rotate(-90)" />
    <path
       id="rect13"
       style="fill:#808080;fill-opacity:1;stroke-width:0.544988;stroke-linecap:round;paint-order:markers fill stroke"
       d="M 1.819424,1.921994 H 98.109829 V 108.82345 H 1.819424 Z" />
    <path
       id="rect25"
       style="fill:#2b482b;fill-opacity:1;stroke:none;stroke-width:5.80321"
       d="m 46.032885,68.291354 h 7.298844 c 0,0 5.54822,20.47885 0.91237,20.29954 l -8.895469,-0.34405 c -4.704476,-0.18197 0.684255,-19.95549 0.684255,-19.95549 z"
       sodipodi:nodetypes="ccssc" />
    <g
       id="g967"
       transform="matrix(1.0480048,0,0,1,-57.839449,-96.434566)"
       style="fill:#2b482b;fill-opacity:1">
      <path
         id="path23"
         style="fill:#2b482b;fill-opacity:1;stroke:none;stroke-width:4.71619"
         d="m 111.82752,193.40814 c 0,8.40851 -5.67991,11.39545 -13.301106,11.39545 -7.621194,0 -14.297676,-2.98694 -14.297674,-11.39545 3e-6,-8.4085 6.178199,-15.22494 13.79939,-15.22494 7.62119,0 13.79939,6.81644 13.79939,15.22494 z"
         sodipodi:nodetypes="sssss" />
      <path
         id="ellipse851"
         style="fill:#2b482b;fill-opacity:1;stroke:none;stroke-width:4.72501"
         d="m 122.02766,193.23708 c 0,8.43999 -5.84601,11.10433 -13.4672,11.10433 -7.62119,0 -14.091131,-2.66445 -14.131578,-11.10433 -0.04048,-8.44582 -9.204214,-17.49463 13.799388,-15.28197 7.58929,0.73 13.79939,6.84197 13.79939,15.28197 z"
         sodipodi:nodetypes="sssss" />
      <path
         id="rect864"
         style="fill:#2b482b;fill-opacity:1;stroke:none;stroke-width:3.34385"
         d="m 84.220573,192.7809 h 37.807087 v 12.5449 H 84.220573 Z" />
    </g>
    <path
       id="path949"
       style="fill:#243d24;fill-opacity:1;stroke:none;stroke-width:4.81362"
       d="m 54.945009,73.641864 c 0.081,1.17545 0.30098,3.07239 -5.16934,2.93922 -5.148323,-0.12534 -5.399237,-1.01565 -5.287912,-2.55211 0.149038,-2.05696 2.395439,-4.98218 5.184762,-4.98218 2.78932,0 5.14082,2.68384 5.27249,4.59507 z"
       sodipodi:nodetypes="sssss" />
    <path
       sodipodi:nodetypes="sssss"
       d="m 65.847149,55.794834 c 0,9.45193 -7.14157,20.10507 -15.95113,20.10507 -8.809563,0 -15.951124,-10.65314 -15.951124,-20.10507 0,-9.45193 7.141561,-17.11422 15.951124,-17.11422 8.80956,0 15.95113,7.66229 15.95113,17.11422 z"
       style="fill:#1e331e;fill-opacity:1;stroke-width:0.586675;stroke-linecap:round;stroke-miterlimit:4;stroke-dasharray:none;paint-order:markers fill stroke"
       id="path10" />
    <g
       id="g912"
       transform="translate(-3.3286043,1.3696051)">
      <g
         id="g921">
        <g
           id="g901"
           transform="matrix(1.0522564,-0.28195126,0.28195126,1.0522564,6.2286963,5.6349223)" />
        <g
           id="g934">
          <rect
             style="fill:#4d4d4d;fill-opacity:1;stroke:none;stroke-width:1.38872;stroke-linejoin:round;stroke-opacity:1"
             id="rect886"
             width="2.1154225"
             height="6.169981"
             x="67.320129"
             y="73.018074"
             transform="matrix(1.0522564,0.28195124,-0.28195124,1.0522564,6.2286962,5.6349223)" />
          <rect
             style="fill:#343434;fill-opacity:1;stroke:none;stroke-width:0.964999;stroke-linejoin:round;stroke-opacity:1"
             id="rect890"
             width="0.48996913"
             height="1.714892"
             x="-6.5883799"
             y="98.514244"
             transform="matrix(0.94342728,-0.544688,0.544688,0.94342728,6.2286962,5.6349223)" />
          <rect
             style="fill:#4d4d4d;fill-opacity:1;stroke:none;stroke-width:0.964999;stroke-linejoin:round;stroke-opacity:1"
             id="rect888"
             width="34.910301"
             height="3.3072915"
             x="43.005188"
             y="71.376068"
             transform="matrix(1.0522564,0.28195124,-0.28195124,1.0522564,6.2286962,5.6349223)" />
          <rect
             style="fill:#343434;fill-opacity:1;stroke:none;stroke-width:0.964999;stroke-linejoin:round;stroke-opacity:1"
             id="rect892"
             width="9.4146214"
             height="1.1362474"
             x="37.951904"
             y="73.51857"
             transform="matrix(1.0522564,0.28195124,-0.28195124,1.0522564,6.2286962,5.6349223)" />
          <rect
             style="fill:#343434;fill-opacity:1;stroke:none;stroke-width:0.964999;stroke-linejoin:round;stroke-opacity:1"
             id="rect894"
             width="9.4146214"
             height="1.1362474"
             x="37.924698"
             y="71.354858"
             transform="matrix(1.0522564,0.28195124,-0.28195124,1.0522564,6.2286962,5.6349223)" />
          <rect
             style="fill:#4d4d4d;fill-opacity:1;stroke:none;stroke-width:0.964999;stroke-linejoin:round;stroke-opacity:1"
             id="rect903"
             width="1.6232105"
             height="3.8957055"
             x="65.923027"
             y="84.26638"
             transform="rotate(15)" />
        </g>
      </g>
    </g>
    <rect
       style="fill:#424242;fill-opacity:1;stroke:none;stroke-width:0.49209"
       id="rect884"
       width="43.110428"
       height="1.0661273"
       x="27.815308"
       y="108.86744" />
    <path
       id="rect938"
       style="fill:#233a23;fill-opacity:1;stroke:none;stroke-width:0.625906;stroke-linejoin:round;stroke-opacity:1"
       d="m 55.978043,88.122537 c 1.152685,-0.908288 2.185965,-1.318 4.421875,0 l -1.807029,3.053199 h -0.978101 z"
       sodipodi:nodetypes="ccccc" />
    <path
       id="rect1013"
       style="fill:#004666;fill-opacity:1;stroke:none;stroke-width:0.868684;stroke-linejoin:round;stroke-opacity:1"
       d="m 37.743558,53.862534 7.629088,0.286953 0,1.62321 -4.998368,0 z"
       sodipodi:nodetypes="ccccc" />
    <path
       id="path1016"
       style="fill:#004666;fill-opacity:1;stroke:none;stroke-width:0.868684;stroke-linejoin:round;stroke-opacity:1"
       d="m 61.653459,53.862534 -7.629088,0.286953 0,1.62321 4.998368,0 z"
       sodipodi:nodetypes="ccccc" />
  </g>
</svg>
