<?xml version="1.0" encoding="UTF-8" standalone="no"?>
<svg
   xmlns:dc="http://purl.org/dc/elements/1.1/"
   xmlns:cc="http://creativecommons.org/ns#"
   xmlns:rdf="http://www.w3.org/1999/02/22-rdf-syntax-ns#"
   xmlns:svg="http://www.w3.org/2000/svg"
   xmlns="http://www.w3.org/2000/svg"
   xmlns:sodipodi="http://sodipodi.sourceforge.net/DTD/sodipodi-0.dtd"
   xmlns:inkscape="http://www.inkscape.org/namespaces/inkscape"
   sodipodi:docname="Miller.svg"
   inkscape:version="1.0.2 (e86c870879, 2021-01-15, custom)"
   id="svg8"
   version="1.1"
   viewBox="0 0 100 111"
   height="111mm"
   width="100mm"
   inkscape:export-filename="C:\Users\Andrei\Downloads\weirdperson.png"
   inkscape:export-xdpi="96"
   inkscape:export-ydpi="96">
  <defs
     id="defs2" />
  <sodipodi:namedview
     inkscape:window-maximized="1"
     inkscape:window-y="-8"
     inkscape:window-x="-8"
     inkscape:window-height="1017"
     inkscape:window-width="1920"
     showgrid="false"
     inkscape:document-rotation="0"
     inkscape:current-layer="layer1"
     inkscape:document-units="mm"
     inkscape:cy="105.22835"
     inkscape:cx="179.42178"
     inkscape:zoom="4.040586"
     inkscape:pageshadow="2"
     inkscape:pageopacity="0.0"
     borderopacity="1.0"
     bordercolor="#666666"
     pagecolor="#ffffff"
     id="base" />
  <metadata
     id="metadata5">
    <rdf:RDF>
      <cc:Work
         rdf:about="">
        <dc:format>image/svg+xml</dc:format>
        <dc:type
           rdf:resource="http://purl.org/dc/dcmitype/StillImage" />
        <dc:title />
      </cc:Work>
    </rdf:RDF>
  </metadata>
  <g
     id="layer1"
     inkscape:groupmode="layer"
     inkscape:label="Layer 1">
    <g
       id="g867"
       style="fill:#424242;fill-opacity:1"
       transform="translate(-53.039871,-96.434566)">
      <ellipse
         style="fill:#424242;fill-opacity:1;stroke:none;stroke-width:0.637017"
         id="path22"
         cx="55.82272"
         cy="99.374931"
         rx="1.9767189"
         ry="1.8739243" />
      <ellipse
         style="fill:#424242;fill-opacity:1;stroke:none;stroke-width:0.637017"
         id="ellipse852"
         cx="55.93824"
         cy="204.41086"
         rx="2.0038671"
         ry="1.9489185" />
      <rect
         style="fill:#424242;fill-opacity:1;stroke:none;stroke-width:1.22181"
         id="rect854"
         width="2.2045934"
         height="105.58218"
         x="53.846001"
         y="98.859528" />
    </g>
    <g
       id="g875"
       style="fill:#424242;fill-opacity:1"
       transform="translate(-53.039871,-96.434566)">
      <ellipse
         style="fill:#424242;fill-opacity:1;stroke:none;stroke-width:0.637017"
         id="ellipse849"
         cx="150.12965"
         cy="204.41086"
         rx="2.0038671"
         ry="1.9489185" />
      <rect
         style="fill:#424242;fill-opacity:1;stroke:none;stroke-width:1.22181"
         id="rect856"
         width="2.2045934"
         height="105.58218"
         x="149.95399"
         y="98.859528"
         ry="0.2619637" />
    </g>
    <g
       id="g871"
       style="fill:#424242;fill-opacity:1"
       transform="translate(-53.039871,-96.434566)">
      <path
         style="fill:#424242;fill-opacity:1;stroke:none;stroke-width:0.637017"
         id="ellipse847"
         sodipodi:type="arc"
         sodipodi:cx="150.22987"
         sodipodi:cy="99.636894"
         sodipodi:rx="2.0038671"
         sodipodi:ry="2.1358871"
         sodipodi:start="0"
         sodipodi:end="6.0676951"
         sodipodi:open="true"
         sodipodi:arc-type="arc"
         d="m 152.23374,99.636894 a 2.0038671,2.1358871 0 0 1 -1.89597,2.132786 2.0038671,2.1358871 0 0 1 -2.10014,-1.903099 2.0038671,2.1358871 0 0 1 1.66979,-2.33774 2.0038671,2.1358871 0 0 1 2.27997,1.651344" />
      <rect
         style="fill:#424242;fill-opacity:1;stroke:none;stroke-width:1.15146"
         id="rect858"
         width="2.2045934"
         height="93.772415"
         x="-99.705597"
         y="56.050594"
         transform="rotate(-90)" />
    </g>
    <rect
       style="fill:#424242;fill-opacity:1;stroke:none;stroke-width:1.15146"
       id="rect860"
       width="2.2045934"
       height="93.772415"
       x="-109.93203"
       y="3.0107243"
       transform="rotate(-90)" />
    <path
       id="rect13"
       style="fill:#808080;fill-opacity:1;stroke-width:0.544988;stroke-linecap:round;paint-order:markers fill stroke"
       d="M 1.819424,1.921994 H 98.109829 V 108.82345 H 1.819424 Z" />
    <path
       id="rect25"
       style="fill:#1e1e1e;fill-opacity:1;stroke:none;stroke-width:5.80321"
       d="m 46.032885,68.291354 h 7.298844 c 0,0 5.54822,20.47885 0.91237,20.29954 l -8.895469,-0.34405 c -4.704476,-0.18197 0.684255,-19.95549 0.684255,-19.95549 z"
       sodipodi:nodetypes="ccssc" />
    <path
       id="path949"
       style="fill:#161616;fill-opacity:1;stroke:none;stroke-width:4.81362"
       d="m 54.945009,73.641864 c 0.081,1.17545 0.30098,3.07239 -5.16934,2.93922 -5.148323,-0.12534 -5.399237,-1.01565 -5.287912,-2.55211 0.149038,-2.05696 2.395439,-4.98218 5.184762,-4.98218 2.78932,0 5.14082,2.68384 5.27249,4.59507 z"
       sodipodi:nodetypes="sssss" />
    <path
       sodipodi:nodetypes="sssss"
       d="m 65.847149,55.794834 c 0,9.45193 -7.14157,20.10507 -15.95113,20.10507 -8.809563,0 -15.951124,-10.65314 -15.951124,-20.10507 0,-9.45193 7.141561,-17.11422 15.951124,-17.11422 8.80956,0 15.95113,7.66229 15.95113,17.11422 z"
       style="fill:#1e1e1e;fill-opacity:1;stroke-width:0.586675;stroke-linecap:round;stroke-miterlimit:4;stroke-dasharray:none;paint-order:markers fill stroke"
       id="path10" />
    <g
       id="g967"
       transform="matrix(1.0480048,0,0,1,-57.839449,-96.434566)"
       style="fill:#1e1e1e;fill-opacity:1">
      <path
         id="path23"
         style="fill:#1e1e1e;fill-opacity:1;stroke:none;stroke-width:4.71619"
         d="m 111.82752,193.40814 c 0,8.40851 -5.67991,11.39545 -13.301106,11.39545 -7.621194,0 -14.297676,-2.98694 -14.297674,-11.39545 3e-6,-8.4085 6.178199,-15.22494 13.79939,-15.22494 7.62119,0 13.79939,6.81644 13.79939,15.22494 z"
         sodipodi:nodetypes="sssss" />
      <path
         id="ellipse851"
         style="fill:#1e1e1e;fill-opacity:1;stroke:none;stroke-width:4.72501"
         d="m 122.02766,193.23708 c 0,8.43999 -5.84601,11.10433 -13.4672,11.10433 -7.62119,0 -14.131574,-2.66434 -14.131578,-11.10433 -10e-7,-8.44 6.178198,-15.28197 13.799388,-15.28197 7.62119,0 13.79939,6.84197 13.79939,15.28197 z"
         sodipodi:nodetypes="sssss" />
      <path
         id="rect864"
         style="fill:#1e1e1e;fill-opacity:1;stroke:none;stroke-width:3.34385"
         d="m 84.220573,192.7809 h 37.807087 v 12.5449 H 84.220573 Z" />
    </g>
    <path
       id="rect884"
       style="fill:#424242;fill-opacity:1;stroke:none;stroke-width:0.49209"
       d="m 27.815308,108.86744 h 43.110427 v 1.06613 H 27.815308 Z" />
    <path
       id="rect865"
       style="fill:#29b1ff;stroke-width:1.07;stroke-linejoin:round;fill-opacity:1"
       d="m 40.422456,53.284142 h 6.002122 v 1.837384 h -3.674769 z"
       sodipodi:nodetypes="ccccc" />
    <path
       id="path868"
       style="fill:#29b1ff;fill-opacity:1;stroke-width:1.07;stroke-linejoin:round"
       d="m 59.653753,53.284142 h -6.002122 v 1.837384 H 57.3264 Z"
       sodipodi:nodetypes="ccccc" />
    <g
       id="g931">
      <g
         id="g890">
        <rect
           style="fill:#2b2b2b;fill-opacity:1;stroke-width:1.07;stroke-linejoin:round"
           id="rect881"
           width="6.9820604"
           height="0.61246139"
           x="38.340084"
           y="89.664352" />
        <rect
           style="fill:#2b2b2b;fill-opacity:1;stroke-width:0.971617;stroke-linejoin:round"
           id="rect883"
           width="5.7571378"
           height="0.61246139"
           x="38.340084"
           y="90.722687" />
        <rect
           style="fill:#2b2b2b;fill-opacity:1;stroke-width:0.633813;stroke-linejoin:round"
           id="rect885"
           width="2.449846"
           height="0.61246139"
           x="38.340084"
           y="91.781021" />
      </g>
      <g
         id="g909"
         transform="translate(-15.967857,0.97994232)">
        <rect
           style="fill:#2b2b2b;fill-opacity:1;stroke-width:1.07;stroke-linejoin:round"
           id="rect900"
           width="0.48996913"
           height="10.044367"
           x="63.206017"
           y="88.68441" />
        <rect
           style="fill:#2b2b2b;fill-opacity:1;stroke-width:1.01647;stroke-linejoin:round"
           id="rect902"
           width="0.48996913"
           height="9.0644283"
           x="62.248001"
           y="88.68441" />
        <rect
           style="fill:#2b2b2b;fill-opacity:1;stroke-width:0.657899;stroke-linejoin:round"
           id="rect904"
           width="0.48996913"
           height="3.79726"
           x="61.290001"
           y="88.68441" />
      </g>
      <g
         id="g917"
         transform="matrix(-1,0,0,1,93.050271,9.4319)">
        <rect
           style="fill:#2b2b2b;fill-opacity:1;stroke-width:1.07;stroke-linejoin:round"
           id="rect911"
           width="6.9820604"
           height="0.61246139"
           x="38.340084"
           y="89.664352" />
        <rect
           style="fill:#2b2b2b;fill-opacity:1;stroke-width:0.971617;stroke-linejoin:round"
           id="rect913"
           width="5.7571378"
           height="0.61246139"
           x="38.340084"
           y="90.722687" />
        <rect
           style="fill:#2b2b2b;fill-opacity:1;stroke-width:0.633813;stroke-linejoin:round"
           id="rect915"
           width="2.449846"
           height="0.61246139"
           x="38.340084"
           y="91.781021" />
      </g>
    </g>
    <g
       id="g957"
       transform="rotate(90,52.833659,97.219724)">
      <g
         id="g939">
        <rect
           style="fill:#2b2b2b;fill-opacity:1;stroke-width:1.07;stroke-linejoin:round"
           id="rect933"
           width="6.9820604"
           height="0.61246139"
           x="38.340084"
           y="89.664352" />
        <rect
           style="fill:#2b2b2b;fill-opacity:1;stroke-width:0.971617;stroke-linejoin:round"
           id="rect935"
           width="5.7571378"
           height="0.61246139"
           x="38.340084"
           y="90.722687" />
        <rect
           style="fill:#2b2b2b;fill-opacity:1;stroke-width:0.633813;stroke-linejoin:round"
           id="rect937"
           width="2.449846"
           height="0.61246139"
           x="38.340084"
           y="91.781021" />
      </g>
      <g
         id="g947"
         transform="translate(-15.967857,0.97994232)">
        <rect
           style="fill:#2b2b2b;fill-opacity:1;stroke-width:1.07;stroke-linejoin:round"
           id="rect941"
           width="0.48996913"
           height="10.044367"
           x="63.206017"
           y="88.68441" />
        <rect
           style="fill:#2b2b2b;fill-opacity:1;stroke-width:1.01647;stroke-linejoin:round"
           id="rect943"
           width="0.48996913"
           height="9.0644283"
           x="62.248001"
           y="88.68441" />
        <rect
           style="fill:#2b2b2b;fill-opacity:1;stroke-width:0.657899;stroke-linejoin:round"
           id="rect945"
           width="0.48996913"
           height="3.79726"
           x="61.290001"
           y="88.68441" />
      </g>
      <g
         id="g955"
         transform="matrix(-1,0,0,1,93.050271,9.4319)">
        <rect
           style="fill:#2b2b2b;fill-opacity:1;stroke-width:1.07;stroke-linejoin:round"
           id="rect949"
           width="6.9820604"
           height="0.61246139"
           x="38.340084"
           y="89.664352" />
        <rect
           style="fill:#2b2b2b;fill-opacity:1;stroke-width:0.971617;stroke-linejoin:round"
           id="rect951"
           width="5.7571378"
           height="0.61246139"
           x="38.340084"
           y="90.722687" />
        <rect
           style="fill:#2b2b2b;fill-opacity:1;stroke-width:0.633813;stroke-linejoin:round"
           id="rect953"
           width="2.449846"
           height="0.61246139"
           x="38.340084"
           y="91.781021" />
      </g>
    </g>
    <g
       id="g983"
       transform="rotate(180,53.06322,97.851178)">
      <g
         id="g965">
        <rect
           style="fill:#2b2b2b;fill-opacity:1;stroke-width:1.07;stroke-linejoin:round"
           id="rect959"
           width="6.9820604"
           height="0.61246139"
           x="38.340084"
           y="89.664352" />
        <rect
           style="fill:#2b2b2b;fill-opacity:1;stroke-width:0.971617;stroke-linejoin:round"
           id="rect961"
           width="5.7571378"
           height="0.61246139"
           x="38.340084"
           y="90.722687" />
        <rect
           style="fill:#2b2b2b;fill-opacity:1;stroke-width:0.633813;stroke-linejoin:round"
           id="rect963"
           width="2.449846"
           height="0.61246139"
           x="38.340084"
           y="91.781021" />
      </g>
      <g
         id="g973"
         transform="translate(-15.967857,0.97994232)">
        <rect
           style="fill:#2b2b2b;fill-opacity:1;stroke-width:1.07;stroke-linejoin:round"
           id="rect967"
           width="0.48996913"
           height="10.044367"
           x="63.206017"
           y="88.68441" />
        <rect
           style="fill:#2b2b2b;fill-opacity:1;stroke-width:1.01647;stroke-linejoin:round"
           id="rect969"
           width="0.48996913"
           height="9.0644283"
           x="62.248001"
           y="88.68441" />
        <rect
           style="fill:#2b2b2b;fill-opacity:1;stroke-width:0.657899;stroke-linejoin:round"
           id="rect971"
           width="0.48996913"
           height="3.79726"
           x="61.290001"
           y="88.68441" />
      </g>
      <g
         id="g981"
         transform="matrix(-1,0,0,1,93.050271,9.4319)">
        <rect
           style="fill:#2b2b2b;fill-opacity:1;stroke-width:1.07;stroke-linejoin:round"
           id="rect975"
           width="6.9820604"
           height="0.61246139"
           x="38.340084"
           y="89.664352" />
        <rect
           style="fill:#2b2b2b;fill-opacity:1;stroke-width:0.971617;stroke-linejoin:round"
           id="rect977"
           width="5.7571378"
           height="0.61246139"
           x="38.340084"
           y="90.722687" />
        <rect
           style="fill:#2b2b2b;fill-opacity:1;stroke-width:0.633813;stroke-linejoin:round"
           id="rect979"
           width="2.449846"
           height="0.61246139"
           x="38.340084"
           y="91.781021" />
      </g>
    </g>
    <g
       id="g991"
       transform="rotate(90,39.932486,95.054011)">
      <rect
         style="fill:#2b2b2b;fill-opacity:1;stroke-width:1.07;stroke-linejoin:round"
         id="rect985"
         width="6.9820604"
         height="0.61246139"
         x="38.340084"
         y="89.664352" />
      <rect
         style="fill:#2b2b2b;fill-opacity:1;stroke-width:0.971617;stroke-linejoin:round"
         id="rect987"
         width="5.7571378"
         height="0.61246139"
         x="38.340084"
         y="90.722687" />
      <rect
         style="fill:#2b2b2b;fill-opacity:1;stroke-width:0.633813;stroke-linejoin:round"
         id="rect989"
         width="2.449846"
         height="0.61246139"
         x="38.340084"
         y="91.781021" />
    </g>
    <g
       id="g999"
       transform="rotate(90,47.426443,86.580111)">
      <rect
         style="fill:#2b2b2b;fill-opacity:1;stroke-width:1.07;stroke-linejoin:round"
         id="rect993"
         width="0.48996913"
         height="10.044367"
         x="63.206017"
         y="88.68441" />
      <rect
         style="fill:#2b2b2b;fill-opacity:1;stroke-width:1.01647;stroke-linejoin:round"
         id="rect995"
         width="0.48996913"
         height="9.0644283"
         x="62.248001"
         y="88.68441" />
      <rect
         style="fill:#2b2b2b;fill-opacity:1;stroke-width:0.657899;stroke-linejoin:round"
         id="rect997"
         width="0.48996913"
         height="3.79726"
         x="61.290001"
         y="88.68441" />
    </g>
    <rect
       style="fill:#2b2b2b;fill-opacity:1;stroke-width:0.990881;stroke-linejoin:round"
       id="rect1001"
       width="5.9876833"
       height="0.61246139"
       x="-108.83734"
       y="-35.890247"
       transform="matrix(0,-1,-1,0,0,0)" />
    <rect
       style="fill:#2b2b2b;fill-opacity:1;stroke-width:0.88651;stroke-linejoin:round"
       id="rect1003"
       width="4.7927313"
       height="0.61246139"
       x="-108.86731"
       y="-34.831913"
       transform="matrix(0,-1,-1,0,0,0)" />
    <rect
       style="fill:#2b2b2b;fill-opacity:1;stroke-width:0.486792;stroke-linejoin:round"
       id="rect1005"
       width="1.4451226"
       height="0.61246139"
       x="-108.82699"
       y="-33.773579"
       transform="matrix(0,-1,-1,0,0,0)" />
    <rect
       style="fill:#2b2b2b;fill-opacity:1;stroke-width:0.990881;stroke-linejoin:round"
       id="rect1026"
       width="5.9876833"
       height="0.61246139"
       x="100.75672"
       y="46.836372"
       transform="matrix(0,1,1,0,0,0)" />
    <rect
       style="fill:#2b2b2b;fill-opacity:1;stroke-width:0.88651;stroke-linejoin:round"
       id="rect1028"
       width="4.7927313"
       height="0.61246139"
       x="100.72675"
       y="47.894722"
       transform="matrix(0,1,1,0,0,0)" />
    <rect
       style="fill:#2b2b2b;fill-opacity:1;stroke-width:0.486792;stroke-linejoin:round"
       id="rect1030"
       width="1.4451226"
       height="0.61246139"
       x="100.76705"
       y="48.953049"
       transform="matrix(0,1,1,0,0,0)" />
  </g>
</svg>
