<?xml version="1.0" encoding="UTF-8" standalone="no"?>
<svg
   xmlns:dc="http://purl.org/dc/elements/1.1/"
   xmlns:cc="http://creativecommons.org/ns#"
   xmlns:rdf="http://www.w3.org/1999/02/22-rdf-syntax-ns#"
   xmlns:svg="http://www.w3.org/2000/svg"
   xmlns="http://www.w3.org/2000/svg"
   xmlns:sodipodi="http://sodipodi.sourceforge.net/DTD/sodipodi-0.dtd"
   xmlns:inkscape="http://www.inkscape.org/namespaces/inkscape"
   sodipodi:docname="Raphael.svg"
   inkscape:version="1.0.2 (e86c870879, 2021-01-15, custom)"
   id="svg8"
   version="1.1"
   viewBox="0 0 100 111"
   height="111mm"
   width="100mm"
   inkscape:export-filename="C:\Users\Andrei\Downloads\weirdperson.png"
   inkscape:export-xdpi="96"
   inkscape:export-ydpi="96">
  <defs
     id="defs2" />
  <sodipodi:namedview
     inkscape:window-maximized="1"
     inkscape:window-y="-8"
     inkscape:window-x="-8"
     inkscape:window-height="1017"
     inkscape:window-width="1920"
     showgrid="false"
     inkscape:document-rotation="0"
     inkscape:current-layer="layer1"
     inkscape:document-units="mm"
     inkscape:cy="130.19859"
     inkscape:cx="376.25387"
     inkscape:zoom="1.63"
     inkscape:pageshadow="2"
     inkscape:pageopacity="0.0"
     borderopacity="1.0"
     bordercolor="#666666"
     pagecolor="#ffffff"
     id="base" />
  <metadata
     id="metadata5">
    <rdf:RDF>
      <cc:Work
         rdf:about="">
        <dc:format>image/svg+xml</dc:format>
        <dc:type
           rdf:resource="http://purl.org/dc/dcmitype/StillImage" />
        <dc:title />
      </cc:Work>
    </rdf:RDF>
  </metadata>
  <g
     id="layer1"
     inkscape:groupmode="layer"
     inkscape:label="Layer 1">
    <g
       id="g867"
       style="fill:#424242;fill-opacity:1"
       transform="translate(-53.039871,-96.434566)">
      <ellipse
         style="fill:#424242;fill-opacity:1;stroke:none;stroke-width:0.637017"
         id="path22"
         cx="55.82272"
         cy="99.374931"
         rx="1.9767189"
         ry="1.8739243" />
      <ellipse
         style="fill:#424242;fill-opacity:1;stroke:none;stroke-width:0.637017"
         id="ellipse852"
         cx="55.93824"
         cy="204.41086"
         rx="2.0038671"
         ry="1.9489185" />
      <rect
         style="fill:#424242;fill-opacity:1;stroke:none;stroke-width:1.22181"
         id="rect854"
         width="2.2045934"
         height="105.58218"
         x="53.846001"
         y="98.859528" />
    </g>
    <g
       id="g875"
       style="fill:#424242;fill-opacity:1"
       transform="translate(-53.039871,-96.434566)">
      <ellipse
         style="fill:#424242;fill-opacity:1;stroke:none;stroke-width:0.637017"
         id="ellipse849"
         cx="150.12965"
         cy="204.41086"
         rx="2.0038671"
         ry="1.9489185" />
      <rect
         style="fill:#424242;fill-opacity:1;stroke:none;stroke-width:1.22181"
         id="rect856"
         width="2.2045934"
         height="105.58218"
         x="149.95399"
         y="98.859528"
         ry="0.2619637" />
    </g>
    <g
       id="g871"
       style="fill:#424242;fill-opacity:1"
       transform="translate(-53.039871,-96.434566)">
      <path
         style="fill:#424242;fill-opacity:1;stroke:none;stroke-width:0.637017"
         id="ellipse847"
         sodipodi:type="arc"
         sodipodi:cx="150.22987"
         sodipodi:cy="99.636894"
         sodipodi:rx="2.0038671"
         sodipodi:ry="2.1358871"
         sodipodi:start="0"
         sodipodi:end="6.0676951"
         sodipodi:open="true"
         sodipodi:arc-type="arc"
         d="m 152.23374,99.636894 a 2.0038671,2.1358871 0 0 1 -1.89597,2.132786 2.0038671,2.1358871 0 0 1 -2.10014,-1.903099 2.0038671,2.1358871 0 0 1 1.66979,-2.33774 2.0038671,2.1358871 0 0 1 2.27997,1.651344" />
      <rect
         style="fill:#424242;fill-opacity:1;stroke:none;stroke-width:1.15146"
         id="rect858"
         width="2.2045934"
         height="93.772415"
         x="-99.705597"
         y="56.050594"
         transform="rotate(-90)" />
    </g>
    <rect
       style="fill:#424242;fill-opacity:1;stroke:none;stroke-width:1.15146"
       id="rect860"
       width="2.2045934"
       height="93.772415"
       x="-109.93203"
       y="3.0107243"
       transform="rotate(-90)" />
    <path
       id="rect13"
       style="fill:#808080;fill-opacity:1;stroke-width:0.544988;stroke-linecap:round;paint-order:markers fill stroke"
       d="M 1.819424,1.921994 H 98.109829 V 108.82345 H 1.819424 Z" />
    <path
       sodipodi:nodetypes="sssss"
       d="m 65.847149,55.794834 c -2.79612,9.02888 -6.42556,-4.62854 -15.23512,-4.62854 -8.809566,0 -13.639157,13.58233 -16.667134,4.62854 -2.791811,-8.25544 7.141562,-17.11914 15.951124,-17.11422 8.85409,0.005 18.7809,7.97671 15.95113,17.11422 z"
       style="fill:#fdffce;fill-opacity:1;stroke:#aa9f64;stroke-width:1.787;stroke-linecap:round;stroke-miterlimit:4;stroke-dasharray:none;stroke-opacity:1;paint-order:markers fill stroke"
       id="path38" />
    <path
       id="rect25"
       style="fill:#fdffce;fill-opacity:1;stroke:none;stroke-width:5.80321"
       d="m 46.032885,68.291354 h 7.298844 c 0,0 5.54822,20.47885 0.91237,20.29954 l -8.895469,-0.34405 c -4.704476,-0.18197 0.684255,-19.95549 0.684255,-19.95549 z"
       sodipodi:nodetypes="ccssc" />
    <g
       id="g967"
       transform="matrix(1.0480048,0,0,1,-57.839449,-96.434566)"
       style="fill:#dcf0f1;fill-opacity:1">
      <path
         id="path23"
         style="fill:#dcf0f1;fill-opacity:1;stroke:none;stroke-width:4.71619"
         d="m 111.82752,193.40814 c 0,8.40851 -5.67991,11.39545 -13.301106,11.39545 -7.621194,0 -14.297676,-2.98694 -14.297674,-11.39545 3e-6,-8.4085 6.178199,-15.22494 13.79939,-15.22494 7.62119,0 13.79939,6.81644 13.79939,15.22494 z"
         sodipodi:nodetypes="sssss" />
      <path
         id="ellipse851"
         style="fill:#dcf0f1;fill-opacity:1;stroke:none;stroke-width:4.72501"
         d="m 122.02766,193.23708 c 0,8.43999 -5.84601,11.10433 -13.4672,11.10433 -7.62119,0 -14.131574,-2.66434 -14.131578,-11.10433 -10e-7,-8.44 6.178198,-15.28197 13.799388,-15.28197 7.62119,0 13.79939,6.84197 13.79939,15.28197 z"
         sodipodi:nodetypes="sssss" />
      <path
         id="rect864"
         style="fill:#dcf0f1;fill-opacity:1;stroke:none;stroke-width:3.34385"
         d="m 84.220573,192.7809 h 37.807087 v 12.5449 H 84.220573 Z" />
    </g>
    <path
       id="path949"
       style="fill:#ffe9af;fill-opacity:1;stroke:none;stroke-width:4.81362"
       d="m 54.945009,73.641864 c 0.081,1.17545 0.30098,3.07239 -5.16934,2.93922 -5.148323,-0.12534 -5.399237,-1.01565 -5.287912,-2.55211 0.149038,-2.05696 2.395439,-4.98218 5.184762,-4.98218 2.78932,0 5.14082,2.68384 5.27249,4.59507 z"
       sodipodi:nodetypes="sssss" />
    <path
       id="path850"
       style="fill:#fdffce;fill-opacity:1;stroke-width:0.17945"
       d="m 35.549162,56.659774 c -3e-6,1.1865 -0.11874,3.53845 -1.200547,3.53845 -1.081807,0 -2.211531,-1.97284 -2.211534,-3.15933 -1e-6,-1.1865 0.371485,-2.52747 1.453294,-2.52747 1.081809,0 1.958788,0.96185 1.958787,2.14835 z"
       sodipodi:nodetypes="sssss" />
    <path
       id="path872"
       style="fill:#fff2c1;fill-opacity:1;stroke-width:0.126351"
       d="m 34.931711,56.771454 c -2e-6,0.87694 -0.07965,2.61523 -0.805286,2.61523 -0.725639,0 -1.483422,-1.4581 -1.483424,-2.335 -10e-7,-0.87694 0.249178,-1.86803 0.974822,-1.86803 0.72564,0 1.313889,0.7109 1.313888,1.5878 z"
       sodipodi:nodetypes="sssss" />
    <path
       sodipodi:nodetypes="sssss"
       d="m 65.847149,55.794834 c 0,9.45193 -7.14157,20.10507 -15.95113,20.10507 -8.809563,0 -15.951124,-10.65314 -15.951124,-20.10507 0,-9.45193 7.141561,-17.11422 15.951124,-17.11422 8.80956,0 15.95113,7.66229 15.95113,17.11422 z"
       style="fill:#fdffce;fill-opacity:1;stroke-width:0.586675;stroke-linecap:round;stroke-miterlimit:4;stroke-dasharray:none;paint-order:markers fill stroke"
       id="path10" />
    <rect
       style="fill:#424242;fill-opacity:1;stroke:none;stroke-width:0.49209"
       id="rect884"
       width="43.110428"
       height="1.0661273"
       x="27.815308"
       y="108.86744" />
    <path
       id="rect894"
       style="fill:#cfeaeb;fill-opacity:1;stroke:none;stroke-width:1.97169;stroke-opacity:1"
       d="m 40.61784,83.283484 c -0.416692,-1.95331 17.448999,-1.83286 17.953049,-0.83486 l -4.80434,20.665826 c -2.22614,0.75203 -4.27534,3.64797 -6.84951,0.18279 z"
       sodipodi:nodetypes="ccccc" />
    <path
       style="fill:#a9d9de;fill-opacity:1;stroke:#abdade;stroke-width:0.371389px;stroke-linecap:butt;stroke-linejoin:miter;stroke-opacity:1"
       d="m 41.502172,83.356124 8.034127,21.607036 -5.538188,-3.0288 1.006277,-1.39984 -4.527182,-5.882066 -0.09336,-2.92606 -3.341304,-7.23977 c 0.623945,-0.55679 3.997088,-2.73008 4.45963,-1.1305 z"
       id="path860"
       sodipodi:nodetypes="cccccccc" />
    <path
       style="fill:#abdade;fill-opacity:1;stroke:#abdade;stroke-width:0.371389px;stroke-linecap:butt;stroke-linejoin:miter;stroke-opacity:1"
       d="m 58.331369,83.031404 -8.79507,21.931756 6.29911,-3.35351 -1.00628,-1.39984 4.5272,-5.882066 0.0933,-2.92606 3.25079,-7.63141 c -1.11002,-0.55679 -3.80573,-2.33852 -4.36905,-0.73887 z"
       id="path862"
       sodipodi:nodetypes="cccccccc" />
    <path
       id="path874"
       style="fill:#aa9f64;fill-opacity:1;stroke:#aa9f64;stroke-width:1.96761;stroke-opacity:1"
       d="m 64.391569,47.386154 c -4.08485,1.62678 -7.9102,-2.04861 -14.22763,-2.04861 -6.317443,0 -17.363016,5.07342 -14.919071,2.57989 2.861061,-2.91911 8.30905,-8.676 14.626481,-8.676 6.31743,0 26.28784,3.45829 14.52022,8.14472 z"
       sodipodi:nodetypes="sssss" />
    <path
       id="path855"
       style="fill:#fdffce;fill-opacity:1;stroke-width:0.17945"
       d="m 64.079329,56.659774 c 0,1.1865 0.11874,3.53845 1.20055,3.53845 1.08182,0 2.21155,-1.97284 2.21155,-3.15933 0,-1.1865 -0.37148,-2.52747 -1.4533,-2.52747 -1.08181,0 -1.9588,0.96185 -1.9588,2.14835 z"
       sodipodi:nodetypes="sssss" />
    <path
       id="path876"
       style="fill:#fff2c1;fill-opacity:1;stroke-width:0.126351"
       d="m 64.720919,56.771454 c 0,0.87694 0.0797,2.61523 0.80529,2.61523 0.72564,0 1.48343,-1.4581 1.48343,-2.335 0,-0.87694 -0.24917,-1.86803 -0.97482,-1.86803 -0.72565,0 -1.3139,0.7109 -1.3139,1.5878 z"
       sodipodi:nodetypes="sssss" />
    <path
       id="rect872"
       style="fill:#c6fcfe;fill-opacity:1;stroke:#926e31;stroke-width:0.372636;stroke-miterlimit:4;stroke-dasharray:none;stroke-opacity:1"
       d="m 37.732447,54.376584 h 12.170862 v 7.0729 c -3.23115,2.77371 -7.209478,4.31771 -12.170862,0 z"
       sodipodi:nodetypes="ccccc" />
    <path
       id="path875"
       style="fill:#c6fcfe;fill-opacity:1;stroke:#926e31;stroke-width:0.374811;stroke-miterlimit:4;stroke-dasharray:none;stroke-opacity:1"
       d="m 49.874229,54.376584 h 12.3134 v 7.0729 c -3.26898,2.77371 -7.29391,4.31771 -12.3134,0 z"
       sodipodi:nodetypes="ccccc" />
    <rect
       style="fill:#c6fcfe;fill-opacity:1;stroke:none;stroke-width:0.622073;stroke-miterlimit:4;stroke-dasharray:none;stroke-opacity:1"
       id="rect887"
       width="3.7929778"
       height="6.7533507"
       x="48.075371"
       y="54.544437" />
    <g
       id="g897"
       transform="translate(-52.510704,-95.905399)">
      <rect
         style="fill:#a9d9de;fill-opacity:1;stroke:none;stroke-width:0.586999;stroke-miterlimit:4;stroke-dasharray:none;stroke-opacity:1"
         id="rect889"
         width="1.2985686"
         height="5.1942744"
         x="87.815697"
         y="192.35045" />
      <rect
         style="fill:#a9d9de;fill-opacity:1;stroke:none;stroke-width:0.519868;stroke-miterlimit:4;stroke-dasharray:none;stroke-opacity:1"
         id="rect891"
         width="1.2985686"
         height="4.0741377"
         x="89.531998"
         y="193.47058" />
    </g>
  </g>
</svg>
