<?xml version="1.0" encoding="UTF-8" standalone="no"?>
<svg
   xmlns:dc="http://purl.org/dc/elements/1.1/"
   xmlns:cc="http://creativecommons.org/ns#"
   xmlns:rdf="http://www.w3.org/1999/02/22-rdf-syntax-ns#"
   xmlns:svg="http://www.w3.org/2000/svg"
   xmlns="http://www.w3.org/2000/svg"
   xmlns:sodipodi="http://sodipodi.sourceforge.net/DTD/sodipodi-0.dtd"
   xmlns:inkscape="http://www.inkscape.org/namespaces/inkscape"
   sodipodi:docname="Smith.svg"
   inkscape:version="1.0.2 (e86c870879, 2021-01-15, custom)"
   id="svg8"
   version="1.1"
   viewBox="0 0 100 111"
   height="111mm"
   width="100mm"
   inkscape:export-filename="C:\Users\Andrei\Downloads\weirdperson.png"
   inkscape:export-xdpi="96"
   inkscape:export-ydpi="96">
  <defs
     id="defs2">
    <inkscape:perspective
       sodipodi:type="inkscape:persp3d"
       inkscape:vp_x="0 : -37.500004 : 1"
       inkscape:vp_y="0 : 999.99998 : 0"
       inkscape:vp_z="210 : -37.500004 : 1"
       inkscape:persp3d-origin="105 : -87.000003 : 1"
       id="perspective75" />
  </defs>
  <sodipodi:namedview
     inkscape:window-maximized="1"
     inkscape:window-y="-8"
     inkscape:window-x="-8"
     inkscape:window-height="1017"
     inkscape:window-width="1920"
     showgrid="false"
     inkscape:document-rotation="0"
     inkscape:current-layer="layer1"
     inkscape:document-units="mm"
     inkscape:cy="219.6163"
     inkscape:cx="207.96267"
     inkscape:zoom="1.32"
     inkscape:pageshadow="2"
     inkscape:pageopacity="0.0"
     borderopacity="1.0"
     bordercolor="#666666"
     pagecolor="#ffffff"
     id="base" />
  <metadata
     id="metadata5">
    <rdf:RDF>
      <cc:Work
         rdf:about="">
        <dc:format>image/svg+xml</dc:format>
        <dc:type
           rdf:resource="http://purl.org/dc/dcmitype/StillImage" />
        <dc:title />
      </cc:Work>
    </rdf:RDF>
  </metadata>
  <g
     id="layer1"
     inkscape:groupmode="layer"
     inkscape:label="Layer 1">
    <g
       id="g867"
       style="fill:#424242;fill-opacity:1"
       transform="translate(-53.039871,-96.434566)">
      <ellipse
         style="fill:#424242;fill-opacity:1;stroke:none;stroke-width:0.637017"
         id="path22"
         cx="55.82272"
         cy="99.374931"
         rx="1.9767189"
         ry="1.8739243" />
      <ellipse
         style="fill:#424242;fill-opacity:1;stroke:none;stroke-width:0.637017"
         id="ellipse852"
         cx="55.93824"
         cy="204.41086"
         rx="2.0038671"
         ry="1.9489185" />
      <rect
         style="fill:#424242;fill-opacity:1;stroke:none;stroke-width:1.22181"
         id="rect854"
         width="2.2045934"
         height="105.58218"
         x="53.846001"
         y="98.859528" />
    </g>
    <g
       id="g875"
       style="fill:#424242;fill-opacity:1"
       transform="translate(-53.039871,-96.434566)">
      <ellipse
         style="fill:#424242;fill-opacity:1;stroke:none;stroke-width:0.637017"
         id="ellipse849"
         cx="150.12965"
         cy="204.41086"
         rx="2.0038671"
         ry="1.9489185" />
      <rect
         style="fill:#424242;fill-opacity:1;stroke:none;stroke-width:1.22181"
         id="rect856"
         width="2.2045934"
         height="105.58218"
         x="149.95399"
         y="98.859528"
         ry="0.2619637" />
    </g>
    <g
       id="g871"
       style="fill:#424242;fill-opacity:1"
       transform="translate(-53.039871,-96.434566)">
      <path
         style="fill:#424242;fill-opacity:1;stroke:none;stroke-width:0.637017"
         id="ellipse847"
         sodipodi:type="arc"
         sodipodi:cx="150.22987"
         sodipodi:cy="99.636894"
         sodipodi:rx="2.0038671"
         sodipodi:ry="2.1358871"
         sodipodi:start="0"
         sodipodi:end="6.0676951"
         sodipodi:open="true"
         sodipodi:arc-type="arc"
         d="m 152.23374,99.636894 a 2.0038671,2.1358871 0 0 1 -1.89597,2.132786 2.0038671,2.1358871 0 0 1 -2.10014,-1.903099 2.0038671,2.1358871 0 0 1 1.66979,-2.33774 2.0038671,2.1358871 0 0 1 2.27997,1.651344" />
      <rect
         style="fill:#424242;fill-opacity:1;stroke:none;stroke-width:1.15146"
         id="rect858"
         width="2.2045934"
         height="93.772415"
         x="-99.705597"
         y="56.050594"
         transform="rotate(-90)" />
    </g>
    <rect
       style="fill:#424242;fill-opacity:1;stroke:none;stroke-width:1.15146"
       id="rect860"
       width="2.2045934"
       height="93.772415"
       x="-109.93203"
       y="3.0107243"
       transform="rotate(-90)" />
    <path
       id="rect13"
       style="fill:#808080;fill-opacity:1;stroke-width:0.543122;stroke-linecap:round;paint-order:markers fill stroke"
       d="M 1.997853,2.347027 H 97.936989 V 108.90635 H 1.997853 Z" />
    <path
       sodipodi:nodetypes="sssss"
       d="m 65.847149,55.794834 c -2.79612,9.02888 -6.42556,-4.62854 -15.23512,-4.62854 -8.809566,0 -13.639157,13.58233 -16.667134,4.62854 -2.791811,-8.25544 7.141562,-17.11914 15.951124,-17.11422 8.85409,0.005 18.7809,7.97671 15.95113,17.11422 z"
       style="fill:#796e3b;fill-opacity:1;stroke:#000000;stroke-width:1.787;stroke-linecap:round;stroke-miterlimit:4;stroke-dasharray:none;stroke-opacity:1;paint-order:markers fill stroke"
       id="path38" />
    <path
       id="rect25"
       style="fill:#fdffce;fill-opacity:1;stroke:none;stroke-width:5.80321"
       d="m 46.032885,68.291354 h 7.298844 c 0,0 5.54822,20.47885 0.91237,20.29954 l -8.895469,-0.34405 c -4.704476,-0.18197 0.684255,-19.95549 0.684255,-19.95549 z"
       sodipodi:nodetypes="ccssc" />
    <g
       id="g967"
       transform="matrix(1.0480048,0,0,1,-57.839449,-96.434566)"
       style="fill:#ffffff;fill-opacity:1">
      <path
         id="path23"
         style="fill:#ffffff;fill-opacity:1;stroke:none;stroke-width:4.71619"
         d="m 111.82752,193.40814 c 0,8.40851 -5.67991,11.39545 -13.301106,11.39545 -7.621194,0 -14.297676,-2.98694 -14.297674,-11.39545 3e-6,-8.4085 6.178199,-15.22494 13.79939,-15.22494 7.62119,0 13.79939,6.81644 13.79939,15.22494 z"
         sodipodi:nodetypes="sssss" />
      <path
         id="ellipse851"
         style="fill:#ffffff;fill-opacity:1;stroke:none;stroke-width:4.72501"
         d="m 122.02766,193.23708 c 0,8.43999 -5.84601,11.10433 -13.4672,11.10433 -7.62119,0 -14.131574,-2.66434 -14.131578,-11.10433 -10e-7,-8.44 6.178198,-15.28197 13.799388,-15.28197 7.62119,0 13.79939,6.84197 13.79939,15.28197 z"
         sodipodi:nodetypes="sssss" />
      <path
         id="rect864"
         style="fill:#ffffff;fill-opacity:1;stroke:none;stroke-width:3.34385"
         d="m 84.220573,192.7809 h 37.807087 v 12.5449 H 84.220573 Z" />
    </g>
    <path
       id="path949"
       style="fill:#ffe9af;fill-opacity:1;stroke:none;stroke-width:4.81362"
       d="m 54.945009,73.641864 c 0.081,1.17545 0.30098,3.07239 -5.16934,2.93922 -5.148323,-0.12534 -5.399237,-1.01565 -5.287912,-2.55211 0.149038,-2.05696 2.395439,-4.98218 5.184762,-4.98218 2.78932,0 5.14082,2.68384 5.27249,4.59507 z"
       sodipodi:nodetypes="sssss" />
    <path
       id="path850"
       style="fill:#fdffce;fill-opacity:1;stroke-width:0.17945"
       d="m 35.549162,56.659774 c -3e-6,1.1865 -0.11874,3.53845 -1.200547,3.53845 -1.081807,0 -2.211531,-1.97284 -2.211534,-3.15933 -1e-6,-1.1865 0.371485,-2.52747 1.453294,-2.52747 1.081809,0 1.958788,0.96185 1.958787,2.14835 z"
       sodipodi:nodetypes="sssss" />
    <path
       id="path855"
       style="fill:#fdffce;fill-opacity:1;stroke-width:0.17945"
       d="m 64.079329,56.659774 c 0,1.1865 0.11874,3.53845 1.20055,3.53845 1.08182,0 2.21155,-1.97284 2.21155,-3.15933 0,-1.1865 -0.37148,-2.52747 -1.4533,-2.52747 -1.08181,0 -1.9588,0.96185 -1.9588,2.14835 z"
       sodipodi:nodetypes="sssss" />
    <path
       id="path872"
       style="fill:#fff2c1;fill-opacity:1;stroke-width:0.126351"
       d="m 34.931711,56.771454 c -2e-6,0.87694 -0.07965,2.61523 -0.805286,2.61523 -0.725639,0 -1.483422,-1.4581 -1.483424,-2.335 -10e-7,-0.87694 0.249178,-1.86803 0.974822,-1.86803 0.72564,0 1.313889,0.7109 1.313888,1.5878 z"
       sodipodi:nodetypes="sssss" />
    <path
       id="path876"
       style="fill:#fff2c1;fill-opacity:1;stroke-width:0.126351"
       d="m 64.720919,56.771454 c 0,0.87694 0.0797,2.61523 0.80529,2.61523 0.72564,0 1.48343,-1.4581 1.48343,-2.335 0,-0.87694 -0.24917,-1.86803 -0.97482,-1.86803 -0.72565,0 -1.3139,0.7109 -1.3139,1.5878 z"
       sodipodi:nodetypes="sssss" />
    <path
       sodipodi:nodetypes="sssss"
       d="m 65.847149,55.794834 c 0,9.45193 -7.14157,20.10507 -15.95113,20.10507 -8.809563,0 -15.951124,-10.65314 -15.951124,-20.10507 0,-9.45193 7.141561,-17.11422 15.951124,-17.11422 8.80956,0 15.95113,7.66229 15.95113,17.11422 z"
       style="fill:#fdffce;fill-opacity:1;stroke-width:0.586675;stroke-linecap:round;stroke-miterlimit:4;stroke-dasharray:none;paint-order:markers fill stroke"
       id="path10" />
    <rect
       style="fill:#424242;fill-opacity:1;stroke:none;stroke-width:0.49209"
       id="rect884"
       width="43.110428"
       height="1.0661273"
       x="27.815308"
       y="108.86744" />
    <path
       id="path874"
       style="fill:#0c0b06;fill-opacity:1;stroke:#000000;stroke-width:1.77957;stroke-opacity:1"
       d="m 63.341239,44.894034 c 2.79262,2.82132 -7.59956,-5.03298 -13.52924,-5.03298 -5.929676,0 -16.122389,7.66907 -13.828452,5.49598 2.685451,-2.54397 7.799046,-7.56104 13.728712,-7.56104 5.92968,0 11.03291,4.4753 13.62898,7.09804 z"
       sodipodi:nodetypes="sssss" />
    <path
       id="rect894"
       style="fill:#ffffff;fill-opacity:1;stroke:none;stroke-width:3.6132;stroke-opacity:1"
       d="m 36.006246,30.635634 h 27.638803 l 2.02557,16.38827 H 34.04972 Z"
       sodipodi:nodetypes="ccccc" />
    <g
       id="g916"
       transform="translate(-53.039871,-95.376233)">
      <g
         id="g920">
        <g
           id="g924"
           transform="translate(0,-0.52916667)">
          <path
             id="path909"
             style="fill:#000000;fill-opacity:1;stroke:none;stroke-width:3.28055;stroke-opacity:1"
             d="m 102.64932,164.0587 c -0.92971,0.2781 -2.45304,0.29016 -3.433474,0.0272 -0.980414,-0.26299 -1.060394,0.0811 -0.18026,-0.21038 0.880127,-0.2914 2.399414,-1.11199 3.424354,-0.86374 1.02493,0.24825 1.18177,0.68863 0.35349,0.99258"
             sodipodi:nodetypes="csssc" />
          <path
             id="path912"
             style="fill:#000000;fill-opacity:1;stroke:none;stroke-width:3.28055;stroke-opacity:1"
             d="m 103.87407,164.0587 c 0.92971,0.2781 2.45304,0.29016 3.43348,0.0272 0.98042,-0.26299 1.0604,0.0811 0.18026,-0.21038 -0.88013,-0.2914 -2.39942,-1.11199 -3.42436,-0.86374 -1.02493,0.24825 -1.18177,0.68863 -0.35349,0.99258"
             sodipodi:nodetypes="csssc" />
        </g>
      </g>
    </g>
    <g
       id="g85"
       transform="matrix(1.2477623,0,0,1.2477623,-74.631002,-127.85527)">
      <path
         sodipodi:type="star"
         style="fill:#ffffff;stroke-width:4.19801"
         id="path71"
         sodipodi:sides="100"
         sodipodi:cx="68.3507"
         sodipodi:cy="115.2541"
         sodipodi:r1="3.1181445"
         sodipodi:r2="3.1166058"
         sodipodi:arg1="0.78539816"
         sodipodi:arg2="0.81681409"
         inkscape:flatsided="true"
         inkscape:rounded="0"
         inkscape:randomized="0"
         inkscape:transform-center-y="1.9053917e-06"
         transform="matrix(1.4823563,0,0,1.431176,-9.5556258,-38.720686)"
         inkscape:transform-center-x="-1.5386142e-06"
         d="m 70.555562,117.45896 -0.142796,0.13409 -0.150933,0.12486 -0.158475,0.11514 -0.165393,0.10497 -0.171657,0.0944 -0.177243,0.0834 -0.182131,0.0721 -0.186299,0.0605 -0.189732,0.0487 -0.192417,0.0367 -0.194342,0.0246 -0.1955,0.0123 -0.195887,0 -0.1955,-0.0123 -0.194342,-0.0246 -0.192417,-0.0367 -0.189732,-0.0487 -0.186299,-0.0605 -0.182131,-0.0721 -0.177244,-0.0834 -0.171656,-0.0944 -0.165393,-0.10497 -0.158475,-0.11514 -0.150934,-0.12486 -0.142795,-0.13409 -0.134093,-0.1428 -0.124863,-0.15093 -0.115139,-0.15848 -0.104962,-0.16539 -0.09437,-0.17166 -0.0834,-0.17724 -0.07211,-0.18213 -0.06053,-0.1863 -0.04871,-0.18973 -0.03671,-0.19242 -0.02455,-0.19434 -0.0123,-0.1955 0,-0.19589 0.0123,-0.1955 0.02455,-0.19434 0.03671,-0.19242 0.04871,-0.18973 0.06053,-0.1863 0.07211,-0.18213 0.0834,-0.17724 0.09437,-0.17166 0.104962,-0.16539 0.115139,-0.15848 0.124863,-0.15093 0.134093,-0.14279 0.142795,-0.1341 0.150934,-0.12486 0.158475,-0.11514 0.165393,-0.10496 0.171656,-0.0944 0.177244,-0.0834 0.182131,-0.0721 0.186299,-0.0605 0.189732,-0.0487 0.192417,-0.0367 0.194342,-0.0246 0.1955,-0.0123 0.195887,0 0.1955,0.0123 0.194342,0.0246 0.192417,0.0367 0.189732,0.0487 0.186299,0.0605 0.182131,0.0721 0.177243,0.0834 0.171657,0.0944 0.165393,0.10496 0.158475,0.11514 0.150933,0.12486 0.142796,0.1341 0.134093,0.14279 0.124863,0.15093 0.115139,0.15848 0.104961,0.16539 0.09437,0.17166 0.0834,0.17724 0.07211,0.18213 0.06053,0.1863 0.04872,0.18973 0.0367,0.19242 0.02455,0.19434 0.0123,0.1955 0,0.19589 -0.0123,0.1955 -0.02455,0.19434 -0.0367,0.19242 -0.04872,0.18973 -0.06053,0.1863 -0.07211,0.18213 -0.0834,0.17724 -0.09437,0.17166 -0.104961,0.16539 -0.115139,0.15848 -0.124863,0.15093 z" />
      <path
         sodipodi:type="star"
         style="fill:#ffffff;stroke-width:4.19801"
         id="path78"
         sodipodi:sides="100"
         sodipodi:cx="68.3507"
         sodipodi:cy="115.2541"
         sodipodi:r1="3.1181445"
         sodipodi:r2="3.1166058"
         sodipodi:arg1="0.78539816"
         sodipodi:arg2="0.81681409"
         inkscape:flatsided="true"
         inkscape:rounded="0"
         inkscape:randomized="0"
         inkscape:transform-center-y="1.9053917e-06"
         transform="matrix(1.4823563,0,0,1.431176,-1.3375071,-40.725105)"
         inkscape:transform-center-x="-1.5386142e-06"
         d="m 70.555562,117.45896 -0.142796,0.13409 -0.150933,0.12486 -0.158475,0.11514 -0.165393,0.10497 -0.171657,0.0944 -0.177243,0.0834 -0.182131,0.0721 -0.186299,0.0605 -0.189732,0.0487 -0.192417,0.0367 -0.194342,0.0246 -0.1955,0.0123 -0.195887,0 -0.1955,-0.0123 -0.194342,-0.0246 -0.192417,-0.0367 -0.189732,-0.0487 -0.186299,-0.0605 -0.182131,-0.0721 -0.177244,-0.0834 -0.171656,-0.0944 -0.165393,-0.10497 -0.158475,-0.11514 -0.150934,-0.12486 -0.142795,-0.13409 -0.134093,-0.1428 -0.124863,-0.15093 -0.115139,-0.15848 -0.104962,-0.16539 -0.09437,-0.17166 -0.0834,-0.17724 -0.07211,-0.18213 -0.06053,-0.1863 -0.04871,-0.18973 -0.03671,-0.19242 -0.02455,-0.19434 -0.0123,-0.1955 0,-0.19589 0.0123,-0.1955 0.02455,-0.19434 0.03671,-0.19242 0.04871,-0.18973 0.06053,-0.1863 0.07211,-0.18213 0.0834,-0.17724 0.09437,-0.17166 0.104962,-0.16539 0.115139,-0.15848 0.124863,-0.15093 0.134093,-0.14279 0.142795,-0.1341 0.150934,-0.12486 0.158475,-0.11514 0.165393,-0.10496 0.171656,-0.0944 0.177244,-0.0834 0.182131,-0.0721 0.186299,-0.0605 0.189732,-0.0487 0.192417,-0.0367 0.194342,-0.0246 0.1955,-0.0123 0.195887,0 0.1955,0.0123 0.194342,0.0246 0.192417,0.0367 0.189732,0.0487 0.186299,0.0605 0.182131,0.0721 0.177243,0.0834 0.171657,0.0944 0.165393,0.10496 0.158475,0.11514 0.150933,0.12486 0.142796,0.1341 0.134093,0.14279 0.124863,0.15093 0.115139,0.15848 0.104961,0.16539 0.09437,0.17166 0.0834,0.17724 0.07211,0.18213 0.06053,0.1863 0.04872,0.18973 0.0367,0.19242 0.02455,0.19434 0.0123,0.1955 0,0.19589 -0.0123,0.1955 -0.02455,0.19434 -0.0367,0.19242 -0.04872,0.18973 -0.06053,0.1863 -0.07211,0.18213 -0.0834,0.17724 -0.09437,0.17166 -0.104961,0.16539 -0.115139,0.15848 -0.124863,0.15093 z" />
      <path
         sodipodi:type="star"
         style="fill:#ffffff;stroke-width:4.19801"
         id="path80"
         sodipodi:sides="100"
         sodipodi:cx="68.3507"
         sodipodi:cy="115.2541"
         sodipodi:r1="3.1181445"
         sodipodi:r2="3.1166058"
         sodipodi:arg1="0.78539816"
         sodipodi:arg2="0.81681409"
         inkscape:flatsided="true"
         inkscape:rounded="0"
         inkscape:randomized="0"
         inkscape:transform-center-y="1.9053917e-06"
         transform="matrix(1.4823563,0,0,1.431176,6.5788291,-38.319802)"
         inkscape:transform-center-x="-1.5386142e-06"
         d="m 70.555562,117.45896 -0.142796,0.13409 -0.150933,0.12486 -0.158475,0.11514 -0.165393,0.10497 -0.171657,0.0944 -0.177243,0.0834 -0.182131,0.0721 -0.186299,0.0605 -0.189732,0.0487 -0.192417,0.0367 -0.194342,0.0246 -0.1955,0.0123 -0.195887,0 -0.1955,-0.0123 -0.194342,-0.0246 -0.192417,-0.0367 -0.189732,-0.0487 -0.186299,-0.0605 -0.182131,-0.0721 -0.177244,-0.0834 -0.171656,-0.0944 -0.165393,-0.10497 -0.158475,-0.11514 -0.150934,-0.12486 -0.142795,-0.13409 -0.134093,-0.1428 -0.124863,-0.15093 -0.115139,-0.15848 -0.104962,-0.16539 -0.09437,-0.17166 -0.0834,-0.17724 -0.07211,-0.18213 -0.06053,-0.1863 -0.04871,-0.18973 -0.03671,-0.19242 -0.02455,-0.19434 -0.0123,-0.1955 0,-0.19589 0.0123,-0.1955 0.02455,-0.19434 0.03671,-0.19242 0.04871,-0.18973 0.06053,-0.1863 0.07211,-0.18213 0.0834,-0.17724 0.09437,-0.17166 0.104962,-0.16539 0.115139,-0.15848 0.124863,-0.15093 0.134093,-0.14279 0.142795,-0.1341 0.150934,-0.12486 0.158475,-0.11514 0.165393,-0.10496 0.171656,-0.0944 0.177244,-0.0834 0.182131,-0.0721 0.186299,-0.0605 0.189732,-0.0487 0.192417,-0.0367 0.194342,-0.0246 0.1955,-0.0123 0.195887,0 0.1955,0.0123 0.194342,0.0246 0.192417,0.0367 0.189732,0.0487 0.186299,0.0605 0.182131,0.0721 0.177243,0.0834 0.171657,0.0944 0.165393,0.10496 0.158475,0.11514 0.150933,0.12486 0.142796,0.1341 0.134093,0.14279 0.124863,0.15093 0.115139,0.15848 0.104961,0.16539 0.09437,0.17166 0.0834,0.17724 0.07211,0.18213 0.06053,0.1863 0.04872,0.18973 0.0367,0.19242 0.02455,0.19434 0.0123,0.1955 0,0.19589 -0.0123,0.1955 -0.02455,0.19434 -0.0367,0.19242 -0.04872,0.18973 -0.06053,0.1863 -0.07211,0.18213 -0.0834,0.17724 -0.09437,0.17166 -0.104961,0.16539 -0.115139,0.15848 -0.124863,0.15093 z" />
    </g>
  </g>
</svg>
