<?xml version="1.0" encoding="UTF-8" standalone="no"?>
<svg
   xmlns:dc="http://purl.org/dc/elements/1.1/"
   xmlns:cc="http://creativecommons.org/ns#"
   xmlns:rdf="http://www.w3.org/1999/02/22-rdf-syntax-ns#"
   xmlns:svg="http://www.w3.org/2000/svg"
   xmlns="http://www.w3.org/2000/svg"
   xmlns:sodipodi="http://sodipodi.sourceforge.net/DTD/sodipodi-0.dtd"
   xmlns:inkscape="http://www.inkscape.org/namespaces/inkscape"
   sodipodi:docname="UnknowGuy.svg"
   inkscape:version="1.0.2 (e86c870879, 2021-01-15, custom)"
   id="svg8"
   version="1.1"
   viewBox="0 0 100 111"
   height="111mm"
   width="100mm"
   inkscape:export-filename="C:\Users\Andrei\Downloads\weirdperson.png"
   inkscape:export-xdpi="96"
   inkscape:export-ydpi="96">
  <defs
     id="defs2" />
  <sodipodi:namedview
     inkscape:window-maximized="1"
     inkscape:window-y="-8"
     inkscape:window-x="-8"
     inkscape:window-height="1017"
     inkscape:window-width="1920"
     showgrid="false"
     inkscape:document-rotation="0"
     inkscape:current-layer="layer1"
     inkscape:document-units="mm"
     inkscape:cy="213.03658"
     inkscape:cx="410.74256"
     inkscape:zoom="1"
     inkscape:pageshadow="2"
     inkscape:pageopacity="0.0"
     borderopacity="1.0"
     bordercolor="#666666"
     pagecolor="#ffffff"
     id="base" />
  <metadata
     id="metadata5">
    <rdf:RDF>
      <cc:Work
         rdf:about="">
        <dc:format>image/svg+xml</dc:format>
        <dc:type
           rdf:resource="http://purl.org/dc/dcmitype/StillImage" />
        <dc:title />
      </cc:Work>
    </rdf:RDF>
  </metadata>
  <g
     id="layer1"
     inkscape:groupmode="layer"
     inkscape:label="Layer 1">
    <g
       id="g867"
       style="fill:#424242;fill-opacity:1"
       transform="translate(-53.039871,-96.434566)">
      <ellipse
         style="fill:#424242;fill-opacity:1;stroke:none;stroke-width:0.637017"
         id="path22"
         cx="55.82272"
         cy="99.374931"
         rx="1.9767189"
         ry="1.8739243" />
      <ellipse
         style="fill:#424242;fill-opacity:1;stroke:none;stroke-width:0.637017"
         id="ellipse852"
         cx="55.93824"
         cy="204.41086"
         rx="2.0038671"
         ry="1.9489185" />
      <rect
         style="fill:#424242;fill-opacity:1;stroke:none;stroke-width:1.22181"
         id="rect854"
         width="2.2045934"
         height="105.58218"
         x="53.846001"
         y="98.859528" />
    </g>
    <g
       id="g875"
       style="fill:#424242;fill-opacity:1"
       transform="translate(-53.039871,-96.434566)">
      <ellipse
         style="fill:#424242;fill-opacity:1;stroke:none;stroke-width:0.637017"
         id="ellipse849"
         cx="150.12965"
         cy="204.41086"
         rx="2.0038671"
         ry="1.9489185" />
      <rect
         style="fill:#424242;fill-opacity:1;stroke:none;stroke-width:1.22181"
         id="rect856"
         width="2.2045934"
         height="105.58218"
         x="149.95399"
         y="98.859528"
         ry="0.2619637" />
    </g>
    <g
       id="g871"
       style="fill:#424242;fill-opacity:1"
       transform="translate(-53.039871,-96.434566)">
      <path
         style="fill:#424242;fill-opacity:1;stroke:none;stroke-width:0.637017"
         id="ellipse847"
         sodipodi:type="arc"
         sodipodi:cx="150.22987"
         sodipodi:cy="99.636894"
         sodipodi:rx="2.0038671"
         sodipodi:ry="2.1358871"
         sodipodi:start="0"
         sodipodi:end="6.0676951"
         sodipodi:open="true"
         sodipodi:arc-type="arc"
         d="m 152.23374,99.636894 a 2.0038671,2.1358871 0 0 1 -1.89597,2.132786 2.0038671,2.1358871 0 0 1 -2.10014,-1.903099 2.0038671,2.1358871 0 0 1 1.66979,-2.33774 2.0038671,2.1358871 0 0 1 2.27997,1.651344" />
      <rect
         style="fill:#424242;fill-opacity:1;stroke:none;stroke-width:1.15146"
         id="rect858"
         width="2.2045934"
         height="93.772415"
         x="-99.705597"
         y="56.050594"
         transform="rotate(-90)" />
    </g>
    <rect
       style="fill:#424242;fill-opacity:1;stroke:none;stroke-width:1.15146"
       id="rect860"
       width="2.2045934"
       height="93.772415"
       x="-109.93203"
       y="3.0107243"
       transform="rotate(-90)" />
    <path
       id="rect13"
       style="fill:#808080;fill-opacity:1;stroke-width:0.544988;stroke-linecap:round;paint-order:markers fill stroke"
       d="M 1.819424,1.921994 H 98.109829 V 108.82345 H 1.819424 Z" />
    <path
       id="rect25"
       style="fill:#ffffff;fill-opacity:1;stroke:none;stroke-width:5.80321"
       d="m 46.032885,68.291354 h 7.298844 c 0,0 5.54822,20.47885 0.91237,20.29954 l -8.895469,-0.34405 c -4.704476,-0.18197 0.684255,-19.95549 0.684255,-19.95549 z"
       sodipodi:nodetypes="ccssc" />
    <g
       id="g967"
       transform="matrix(1.0480048,0,0,1,-57.839449,-96.434566)"
       style="fill:#ffffff">
      <path
         id="path23"
         style="fill:#ffffff;fill-opacity:1;stroke:none;stroke-width:4.71619"
         d="m 111.82752,193.40814 c 0,8.40851 -2.16173,12.21832 -9.78292,12.21832 -7.621194,0 -17.815862,-3.80981 -17.81586,-12.21832 3e-6,-8.4085 6.178199,-15.22494 13.79939,-15.22494 7.62119,0 13.79939,6.81644 13.79939,15.22494 z"
         sodipodi:nodetypes="sssss" />
      <path
         id="ellipse851"
         style="fill:#ffffff;fill-opacity:1;stroke:none;stroke-width:4.72501"
         d="m 122.02766,193.23708 c 0,8.43999 -11.19879,11.59884 -18.81998,11.59884 -7.621187,0 -8.778794,-3.15885 -8.778798,-11.59884 -10e-7,-8.44 6.178198,-15.28197 13.799388,-15.28197 7.62119,0 13.79939,6.84197 13.79939,15.28197 z"
         sodipodi:nodetypes="sssss" />
      <path
         id="rect864"
         style="fill:#ffffff;fill-opacity:1;stroke:none;stroke-width:3.34385"
         d="m 84.220573,192.7809 h 37.807087 v 12.5449 H 84.220573 Z" />
    </g>
    <path
       id="path949"
       style="fill:#d8d8d8;fill-opacity:1;stroke:none;stroke-width:4.72501"
       d="m 54.945179,74.032134 c 0.11101,0.98716 -0.0662,1.98803 -5.5332,2.23933 -0.19601,0.009 -4.96724,-0.3739 -4.856632,-1.86392 0.148077,-1.99478 2.379995,-4.83158 5.151332,-4.83158 2.77134,0 5.03086,2.60975 5.2385,4.45617 z"
       sodipodi:nodetypes="sssss" />
    <g
       id="g41"
       transform="matrix(0.85169662,0,0,0.85169662,-37.842034,-70.876781)">
      <g
         id="g862"
         transform="matrix(0.79633619,0,0,0.79633619,19.400318,32.228454)">
        <path
           id="path850"
           style="fill:#ffffff;fill-opacity:1;stroke-width:0.264583"
           d="m 83.846833,147.57041 c -4e-6,1.74939 -0.175072,5.21713 -1.7701,5.21713 -1.595028,0 -3.260706,-2.90877 -3.26071,-4.65815 -2e-6,-1.74939 0.547721,-3.72653 2.142752,-3.72653 1.595031,0 2.88806,1.41816 2.888058,3.16755 z"
           sodipodi:nodetypes="sssss" />
        <path
           id="path855"
           style="fill:#ffffff;fill-opacity:1;stroke-width:0.264583"
           d="m 125.91203,147.57041 c 0,1.74939 0.17507,5.21713 1.77011,5.21713 1.59504,0 3.26073,-2.90877 3.26073,-4.65815 0,-1.74939 -0.54772,-3.72653 -2.14276,-3.72653 -1.59504,0 -2.88808,1.41816 -2.88808,3.16755 z"
           sodipodi:nodetypes="sssss" />
        <path
           id="path872"
           style="fill:#e2e2e2;fill-opacity:1;stroke-width:0.186293"
           d="m 82.936456,147.73508 c -3e-6,1.29297 -0.117433,3.85592 -1.187323,3.85592 -1.06989,0 -2.187174,-2.14984 -2.187177,-3.44275 -10e-7,-1.29297 0.367391,-2.75425 1.437289,-2.75425 1.069892,0 1.937212,1.04817 1.937211,2.34108 z"
           sodipodi:nodetypes="sssss" />
        <path
           id="path876"
           style="fill:#e2e2e2;fill-opacity:1;stroke-width:0.186293"
           d="m 126.858,147.73508 c 0,1.29297 0.11743,3.85592 1.18733,3.85592 1.06989,0 2.18718,-2.14984 2.18719,-3.44275 0,-1.29297 -0.36739,-2.75425 -1.4373,-2.75425 -1.0699,0 -1.93722,1.04817 -1.93722,2.34108 z"
           sodipodi:nodetypes="sssss" />
        <path
           sodipodi:nodetypes="sssss"
           d="m 128.51852,146.29514 c 0,13.93603 -10.52961,29.64313 -23.51852,29.64313 -12.988919,0 -23.518517,-15.7071 -23.518517,-29.64313 0,-13.93603 10.529598,-25.23341 23.518517,-25.23341 12.98891,0 23.51852,11.29738 23.51852,25.23341 z"
           style="opacity:1;fill:#ffffff;fill-opacity:1;stroke-width:0.865;stroke-linecap:round;stroke-miterlimit:4;stroke-dasharray:none;paint-order:markers fill stroke"
           id="path10" />
      </g>
    </g>
    <rect
       style="fill:#424242;fill-opacity:1;stroke:none;stroke-width:0.49209"
       id="rect884"
       width="43.110428"
       height="1.0661273"
       x="27.815308"
       y="108.86744" />
  </g>
</svg>
